<svg width="62" height="80" viewBox="0 0 62 80" fill="none" xmlns="http://www.w3.org/2000/svg">
<g clip-path="url(#clip0_121_3929)">
<path d="M37.0512 25.6418C43.1785 25.3892 53.6202 22.306 53.6202 22.306C53.6202 22.306 32.548 16.6102 16.1035 19.4106C16.1035 19.4106 30.9218 25.8923 37.0512 25.6397V25.6418Z" fill="#5C6A7A"/>
<path d="M36.2402 24.0829C41.224 23.8778 49.767 22.0361 49.767 22.0361C49.767 22.0361 32.6274 17.4047 19.2529 19.6826C19.2529 19.6826 31.2543 24.288 36.2381 24.0851L36.2402 24.0829Z" fill="#222C38"/>
<path d="M54.8729 43.0746C49.6209 39.6762 40.3656 36.6556 40.3656 36.6556C46.6195 33.0066 53.6221 22.3081 53.6221 22.3081C53.6221 22.3081 43.1182 24.5731 36.9888 24.8257C30.8615 25.0783 16.1033 19.4149 16.1033 19.4149C19.729 27.7211 25.0753 35.2413 25.0753 35.2413C18.3216 35.807 10.8492 39.1753 10.8492 39.1753C10.8492 39.1753 -2.28069 56.1654 0.345283 61.5719C2.97126 66.9762 9.09853 75.0448 9.09853 75.0448C26.4806 85.2402 54.8686 76.5541 54.8686 76.5541C55.8683 75.2953 61.9977 63.9685 61.9977 63.9685C61.6223 56.1654 54.8686 43.0768 54.8686 43.0768L54.8729 43.0746Z" fill="#344050"/>
<path d="M29.5379 37.612C27.1007 32.6892 25.4745 27.5785 24.05 22.4074C20.6581 21.3495 17.7318 20.2785 16.5539 19.8381C20.1217 27.8204 25.2192 35.0254 25.2707 35.0988L25.5153 35.4421L25.0969 35.4766C18.7615 36.0078 11.6924 39.063 11.0038 39.3652C10.24 40.3649 -1.90298 56.3878 0.56209 61.4617C3.05719 66.5961 8.80687 74.2524 9.26384 74.857C10.7892 75.7487 12.4476 76.5152 14.2262 77.1629C11.922 72.2444 9.65002 67.3864 6.78161 62.7982C9.01498 56.0618 11.9392 49.5865 14.8912 43.2581C19.3344 40.3066 24.3439 38.223 29.5379 37.612Z" fill="#505E6D"/>
<path d="M54.6883 43.2409C49.5136 39.9137 40.3827 36.9125 40.2905 36.8822L39.782 36.716L40.2454 36.4461C45.6175 33.3089 51.6375 24.7933 53.0942 22.6622C51.1119 23.0725 44.4354 24.4111 39.2671 24.9012C38.1108 29.7701 37.1625 34.6864 33.1463 37.6746C30.0462 40.0756 29.2695 38.8103 25.2147 40.0108C28.0767 40.732 26.7058 40.5549 29.5678 41.2739C27.8986 45.834 30.2843 51.8364 26.9439 54.7166C25.9613 55.4227 24.0734 55.3817 22.4429 55.8631C22.0181 57.3313 21.5954 58.8017 21.1728 60.2721C21.1728 60.4707 21.1771 60.6672 21.1771 60.8658C21.6383 60.8702 22.046 61.0688 22.1747 61.1983C23.6057 62.8781 24.5604 66.0002 23.1294 67.68C21.9366 68.8805 20.0293 70.8 20.0293 71.7608C20.3704 74.0452 20.7652 76.5994 21.5204 79.0371C24.4231 79.5142 27.5575 79.7561 30.9129 79.7561H30.9151C42.8929 79.7561 53.7422 76.6318 54.729 76.3403C55.7889 74.9131 61.2832 64.7825 61.7574 63.908C61.3669 56.4979 55.1689 44.1823 54.6883 43.2387V43.2409Z" fill="#2A3542"/>
<path d="M19.7184 71.9508L18.9396 73.4751H33.0349L34.202 67.7707L35.0988 61.5546C35.0988 61.5546 34.601 58.4195 31.6854 53.5961C31.3808 53.093 29.9798 50.2624 29.9798 50.2624L27.3818 55.3449L16.614 52.9742C20.3127 54.8894 22.9258 57.1975 22.4967 58.0352L21.3425 60.2958C21.0378 60.8917 19.2593 60.6219 16.9272 59.728C16.9251 59.7928 16.91 59.8532 16.8822 59.9072L15.7623 62.0987C17.1611 63.202 17.927 64.1736 17.6802 64.6573L16.526 66.9179C16.1634 67.6261 13.7177 67.1122 10.7356 65.78L10.4824 66.2766C11.6023 66.4429 13.2993 67.0366 15.0886 67.9629C18.0021 69.47 20.0595 71.2901 19.7227 71.9486L19.7184 71.9508Z" fill="#2A3542"/>
<path d="M54.5852 43.338C49.4191 40.0281 40.3419 37.0463 40.2496 37.0161L39.4494 36.7548L40.1767 36.3295C45.3149 33.3305 51.056 25.3762 52.7874 22.8673C51.1955 23.1934 47.7392 23.8757 44.1371 24.4219C41.6077 29.2929 38.9281 34.1186 36.2356 38.765C40.1295 41.2091 43.944 43.8541 47.7285 46.4623C49.4556 51.2145 50.9938 54.8721 52.1824 59.7798C52.1824 62.7054 50.4939 66.1989 48.7883 68.0687C36.6132 74.0344 14.0092 72.523 14.0092 72.523C14.0092 72.523 10.1647 71.4844 4.64453 68.086C6.8543 71.4175 9.01686 74.3064 9.35369 74.7512C14.8974 77.9812 22.1489 79.62 30.9107 79.62H30.9128C42.7169 79.62 53.4224 76.5821 54.6453 76.2215C55.7416 74.7015 61.0386 64.9423 61.6179 63.8757C61.2145 56.567 55.1709 44.4932 54.5831 43.3337L54.5852 43.338Z" fill="#222C38"/>
<path d="M23.1699 34.2632C23.1699 34.2632 28.7351 40.0518 41.9293 36.7181" stroke="#FFC227" stroke-width="1.07956" stroke-miterlimit="10" stroke-linecap="round"/>
<path d="M34.7225 70.7632C35.0293 70.841 35.3404 70.9187 35.66 70.99C39.717 71.9097 43.1732 71.9119 43.3792 70.9943L43.9349 68.5134C44.0336 68.0708 43.3599 67.4727 42.1821 66.8703C43.0123 66.6393 43.5122 66.3435 43.5122 66.024V64.0224C43.5122 63.2797 40.8562 62.6104 37.5802 62.6104C35.5678 62.6104 33.7893 62.863 32.7187 63.23V62.6708C35.9776 62.483 38.3869 61.8137 38.3869 61.0191V58.4778C38.3869 57.9359 37.2648 57.422 35.5206 57.0852V54.6194C35.5206 54.559 35.5056 54.4985 35.4798 54.4381C37.9599 54.1596 39.6634 53.5809 39.6634 52.9116V50.3703C39.6634 49.4289 36.2908 48.5782 32.1309 48.5782L42.7849 45.7303V40.0151C42.7849 40.0151 43.7976 43.7741 44.2974 44.0829C49.0817 47.0301 52.4693 47.7016 52.4693 47.7016L54.4967 53.6435L56.5241 60.9651L52.2912 69.0079L49.5472 70.7481L47.9704 70.7762L46.9084 72.0501L44.3575 71.4693L42.1821 72.7496L35.7287 72.307L34.7247 70.7654L34.7225 70.7632Z" fill="#222C38"/>
<path d="M39.6352 71.0138C39.3627 71.0073 39.1031 70.9166 38.8843 70.7503L29.5454 63.6857C29.0927 63.3424 28.9125 62.7508 29.097 62.211C29.2772 61.6842 29.7728 61.3301 30.3263 61.3301L33.2934 61.397C33.332 61.397 33.3728 61.397 33.4114 61.397C36.194 61.397 38.5088 59.1278 38.5904 56.3317L30.4722 56.1482C29.7556 56.1309 29.1849 55.5307 29.1999 54.8095C29.215 54.1035 29.7985 53.5291 30.5001 53.5291L37.9639 53.6976C37.0822 52.0696 35.3766 51.0094 33.5251 50.9663L30.588 50.8993C30.2405 50.8907 29.9165 50.7482 29.6762 50.4956C29.4359 50.2429 29.3072 49.9104 29.3158 49.5607C29.3308 48.8546 29.9144 48.2803 30.6159 48.2803L42.2376 48.5437C42.9541 48.561 43.5248 49.1612 43.5098 49.8824C43.4948 50.5884 42.9112 51.1627 42.2097 51.1627L39.3284 51.098C39.9892 51.8796 40.4976 52.7886 40.813 53.7623L42.1217 53.7926C42.4693 53.8012 42.7932 53.9437 43.0335 54.1963C43.2738 54.4489 43.4004 54.7814 43.3939 55.1312C43.3789 55.8372 42.7954 56.4116 42.0938 56.4116L41.1927 56.3921C41.0876 60.3347 38.0926 63.5561 34.2545 63.9707L40.4483 68.656C40.725 68.8654 40.9053 69.172 40.9546 69.5196C41.0039 69.8651 40.916 70.2106 40.7057 70.4891C40.4569 70.8216 40.0793 71.0116 39.6652 71.0116H39.6352V71.0138Z" fill="#DDD8D7"/>
<path d="M30.6179 48.5027C30.6179 48.5027 30.635 48.5027 30.6436 48.5027L42.2352 48.7661C42.8359 48.7791 43.3101 49.28 43.2972 49.8845C43.2843 50.4804 42.7995 50.9533 42.2116 50.9533C42.203 50.9533 42.1945 50.9533 42.1859 50.9533L38.8326 50.8777C39.6672 51.7414 40.2979 52.8037 40.6541 53.9804L42.1172 54.0128C42.7179 54.0257 43.1921 54.5267 43.1792 55.1312C43.1663 55.7271 42.6815 56.2 42.0936 56.2C42.085 56.2 42.0765 56.2 42.0679 56.2L40.978 56.1762C40.978 56.2367 40.978 56.2971 40.978 56.3598C40.8879 60.4146 37.6462 63.6684 33.6665 63.8023L40.3194 68.8352C40.7999 69.1979 40.8965 69.8824 40.5361 70.366C40.3215 70.651 39.9976 70.8022 39.6672 70.8022C39.6586 70.8022 39.65 70.8022 39.6436 70.8022C39.4247 70.7978 39.2059 70.7266 39.0171 70.5841L29.6782 63.5194C29.3006 63.2344 29.1504 62.7357 29.3049 62.2866C29.4572 61.8461 29.8691 61.5503 30.3304 61.5503C30.339 61.5503 30.3475 61.5503 30.3561 61.5503L33.2932 61.6172C33.3339 61.6172 33.3747 61.6172 33.4176 61.6172C36.3375 61.6172 38.7446 59.2616 38.8112 56.3079C38.8112 56.2475 38.8112 56.1849 38.8112 56.1244L30.4827 55.9344C29.882 55.9214 29.4079 55.4205 29.4207 54.816C29.4336 54.2201 29.9185 53.7472 30.5063 53.7472C30.5149 53.7472 30.5235 53.7472 30.532 53.7472L38.322 53.9243C37.4874 52.0933 35.6681 50.8022 33.5378 50.7525L30.6007 50.6856C30 50.6726 29.5259 50.1717 29.5387 49.5671C29.5516 48.9712 30.0365 48.4984 30.6243 48.4984M30.6179 48.0709C29.8005 48.0709 29.1225 48.7402 29.1032 49.5607C29.0839 50.4006 29.749 51.1001 30.5835 51.1195L33.5206 51.1865C35.1683 51.2232 36.6936 52.102 37.5818 53.4773L30.5342 53.3175H30.4999C29.6825 53.3175 29.0045 53.9869 28.9852 54.8073C28.9659 55.6472 29.631 56.3468 30.4655 56.3662L38.3628 56.5454C38.1761 59.1256 36.005 61.1832 33.409 61.1832C33.3704 61.1832 33.3339 61.1832 33.2953 61.1832L30.3583 61.1163H30.3239C29.6782 61.1163 29.1032 61.5287 28.893 62.1419C28.6763 62.7702 28.8865 63.4611 29.4143 63.8606L38.7532 70.9252C39.0085 71.1174 39.311 71.2232 39.6286 71.2318H39.6629C40.137 71.2318 40.5897 71.0051 40.875 70.6229C41.3771 69.9515 41.2419 68.9928 40.5747 68.4876L34.795 64.1153C38.4164 63.4784 41.1968 60.3908 41.3964 56.6167L42.0571 56.6318H42.0915C42.9089 56.6318 43.5868 55.9625 43.6061 55.142C43.6254 54.3021 42.9604 53.6025 42.1258 53.5831L40.9673 53.5572C40.6927 52.7605 40.2915 52.007 39.783 51.3311L42.1751 51.3851H42.2095C43.0269 51.3851 43.7048 50.7158 43.7241 49.8953C43.7434 49.0554 43.0784 48.3559 42.2438 48.3364L30.6522 48.073H30.6179V48.0709Z" fill="#2A3542"/>
</g>
<defs>
<clipPath id="clip0_121_3929">
<rect width="62" height="80" fill="white"/>
</clipPath>
</defs>
</svg>
