<svg width="26" height="40" viewBox="0 0 26 40" fill="none" xmlns="http://www.w3.org/2000/svg">
<g clip-path="url(#clip0_105_517)">
<path d="M8.76074 17.7002L16.1246 40L16.7226 39.4651L17.2217 39.0158L19.6423 36.8485L22.8618 37.1022L22.991 37.1119L23.5268 37.1556L24.3241 37.2186L16.9602 14.9188L8.76074 17.7002Z" fill="url(#paint0_linear_105_517)"/>
<path opacity="0.6" d="M9.45801 17.4643L16.723 39.4651L17.2221 39.0158L10.04 17.2671L9.45801 17.4643Z" fill="#FCE487"/>
<path opacity="0.1" d="M13.2645 31.3374L15.6803 24.3701L13.8099 23.777L12.6123 29.364L13.2645 31.3374Z" fill="#231F20"/>
<path opacity="0.6" d="M15.6797 15.3535L22.8618 37.1022L22.9909 37.1119L23.5267 37.1556L16.2617 15.1564L15.6797 15.3535Z" fill="#FCE487"/>
<path d="M17.2381 17.7002L9.87425 40L9.27628 39.4651L8.77557 39.0158L6.35496 36.8485L3.13706 37.1022L3.0063 37.1119L2.47211 37.1556L1.6748 37.2186L9.03868 14.9188L17.2381 17.7002Z" fill="url(#paint1_linear_105_517)"/>
<path opacity="0.6" d="M16.5421 17.4643L9.27707 39.4651L8.77637 39.0158L15.9601 17.2671L16.5421 17.4643Z" fill="#FCE487"/>
<path opacity="0.6" d="M10.3197 15.3535L3.13761 37.1022L3.00685 37.1119L2.47266 37.1556L9.73767 15.1564L10.3197 15.3535Z" fill="#FCE487"/>
<path d="M20.0835 23.8739C19.4983 23.8092 18.9402 24.1389 18.709 24.6868C18.422 25.364 17.655 25.6856 16.9804 25.4108C16.4351 25.1894 15.81 25.3543 15.4401 25.8181C14.984 26.3918 14.1596 26.4904 13.5839 26.0427C13.1167 25.6791 12.4709 25.6678 11.9925 26.0137C11.4009 26.4403 10.5797 26.311 10.1444 25.7227C9.79198 25.246 9.17327 25.0569 8.61995 25.2605C7.93586 25.511 7.18162 25.1619 6.91851 24.4751C6.70642 23.9191 6.15948 23.5684 5.57266 23.612C4.84712 23.6654 4.21406 23.1223 4.1439 22.3902C4.08649 21.7971 3.65435 21.3106 3.0787 21.191C2.36592 21.044 1.90029 20.349 2.02786 19.6234C2.13151 19.0367 1.84448 18.45 1.32145 18.1785C0.674041 17.8423 0.410932 17.0456 0.726663 16.3813C0.9818 15.8448 0.862205 15.2015 0.430067 14.7959C-0.10253 14.2949 -0.145584 13.4545 0.335986 12.9034C0.725069 12.4557 0.78088 11.8044 0.473122 11.2953C0.0920114 10.6682 0.275391 9.84719 0.886124 9.44639C1.38045 9.12154 1.60688 8.50901 1.44583 7.93527C1.2465 7.22739 1.64197 6.48719 2.33562 6.26901C2.89692 6.09123 3.27962 5.56436 3.27643 4.968C3.27324 4.23103 3.85049 3.62659 4.57763 3.60558C5.16604 3.58942 5.67472 3.18537 5.82939 2.61002C6.02234 1.90053 6.73991 1.47548 7.44473 1.65487C8.01559 1.79871 8.61197 1.54982 8.91654 1.03911C9.29128 0.408809 10.095 0.195476 10.7264 0.560728C11.2367 0.856486 11.8793 0.77891 12.3067 0.370021C12.8361 -0.135837 13.6653 -0.119676 14.1771 0.403961C14.5901 0.827395 15.2296 0.929213 15.7494 0.65285C16.3936 0.31184 17.1877 0.552648 17.5402 1.19588C17.8256 1.7179 18.414 1.98942 18.9881 1.86497C19.6992 1.71144 20.4009 2.16234 20.5683 2.8783C20.7038 3.45851 21.1982 3.88032 21.785 3.91911C22.5105 3.96598 23.0655 4.59143 23.0368 5.32679C23.0128 5.92315 23.3764 6.46457 23.9313 6.66174C24.617 6.90578 24.9854 7.65891 24.7621 8.36032C24.5803 8.9276 24.786 9.5482 25.2676 9.88921C25.8624 10.311 26.0171 11.1385 25.6152 11.751C25.2899 12.2472 25.3218 12.9017 25.695 13.3623C26.1558 13.9312 26.084 14.77 25.5339 15.25C25.089 15.6395 24.9455 16.2779 25.1831 16.8242C25.4749 17.4981 25.1831 18.2868 24.5261 18.5987C23.9935 18.8508 23.6858 19.4278 23.7687 20.0177C23.8707 20.7466 23.3796 21.4254 22.6636 21.5466C22.0832 21.6452 21.6335 22.1155 21.557 22.7054C21.4613 23.4359 20.8075 23.9547 20.0851 23.8755L20.0835 23.8739Z" fill="url(#paint2_linear_105_517)"/>
<path d="M12.9973 23.777C18.7851 23.777 23.477 19.0216 23.477 13.1556C23.477 7.28952 18.7851 2.53415 12.9973 2.53415C7.20951 2.53415 2.51758 7.28952 2.51758 13.1556C2.51758 19.0216 7.20951 23.777 12.9973 23.777Z" fill="url(#paint3_linear_105_517)"/>
<path d="M12.9973 23.777C18.7851 23.777 23.477 19.0216 23.477 13.1556C23.477 7.28952 18.7851 2.53415 12.9973 2.53415C7.20951 2.53415 2.51758 7.28952 2.51758 13.1556C2.51758 19.0216 7.20951 23.777 12.9973 23.777Z" fill="url(#paint4_linear_105_517)"/>
<path d="M12.9976 23.0142C18.3697 23.0142 22.7247 18.6003 22.7247 13.1556C22.7247 7.71084 18.3697 3.297 12.9976 3.297C7.62547 3.297 3.27051 7.71084 3.27051 13.1556C3.27051 18.6003 7.62547 23.0142 12.9976 23.0142Z" fill="#706F70"/>
<path d="M12.9989 22.5988C18.1447 22.5988 22.3162 18.3709 22.3162 13.1555C22.3162 7.94019 18.1447 3.71231 12.9989 3.71231C7.85312 3.71231 3.68164 7.94019 3.68164 13.1555C3.68164 18.3709 7.85312 22.5988 12.9989 22.5988Z" fill="url(#paint5_linear_105_517)"/>
<path d="M12.9976 22.0412C17.8395 22.0412 21.7647 18.063 21.7647 13.1556C21.7647 8.24817 17.8395 4.26993 12.9976 4.26993C8.15565 4.26993 4.23047 8.24817 4.23047 13.1556C4.23047 18.063 8.15565 22.0412 12.9976 22.0412Z" fill="url(#paint6_linear_105_517)"/>
<g opacity="0.1">
<path d="M20.6716 14.4953C20.8438 14.3741 20.9858 14.1705 21.0782 13.9264C20.914 13.8957 20.7338 13.9442 20.56 14.0719C20.4292 14.1689 20.3176 14.2998 20.2315 14.4485L20.2857 14.0848C20.3049 13.9636 20.3256 13.8408 20.3256 13.718C20.4771 13.7293 20.6302 13.6808 20.7721 13.5547C20.8518 13.4852 20.9204 13.3963 20.9778 13.2929C21.0368 13.1911 21.0846 13.0747 21.1053 12.9519C20.9347 12.9406 20.7753 13.0101 20.6206 13.1539C20.501 13.2654 20.4037 13.406 20.3336 13.5644C20.3447 13.3172 20.3639 13.0699 20.3431 12.8226C20.493 12.8161 20.6413 12.7515 20.7689 12.6093C20.8375 12.5317 20.9044 12.4363 20.9411 12.3297C20.981 12.223 21.0065 12.1034 21.0192 11.979C20.855 11.9871 20.6971 12.0759 20.568 12.2343C20.5185 12.2974 20.4755 12.3652 20.4388 12.438C20.3973 12.5123 20.3639 12.5915 20.3383 12.6723C20.3383 12.4234 20.2905 12.1778 20.2602 11.9289C20.4037 11.9062 20.5504 11.8222 20.6541 11.6687C20.7689 11.5006 20.8263 11.2711 20.8279 11.0206C20.6684 11.0481 20.5217 11.1531 20.4085 11.326C20.3208 11.4602 20.265 11.6186 20.2379 11.785L20.1582 11.4182C20.131 11.2953 20.1087 11.1709 20.0673 11.0529C20.2076 11.0125 20.332 10.9155 20.4213 10.7523C20.5185 10.5713 20.5584 10.3353 20.5169 10.0978C20.3623 10.143 20.2347 10.2626 20.1486 10.4436C20.0832 10.5842 20.0354 10.7507 20.0274 10.9204C19.9891 10.8008 19.9556 10.678 19.9142 10.56L19.7739 10.2077C19.9078 10.1527 20.021 10.0412 20.0912 9.86826C20.1645 9.67917 20.1597 9.45291 20.1055 9.21533C19.9604 9.27998 19.8456 9.4125 19.7802 9.6016C19.726 9.7519 19.7196 9.9119 19.7228 10.0848C19.6782 9.96523 19.6128 9.85533 19.5602 9.74059C19.5012 9.62907 19.4501 9.51109 19.3848 9.40281C19.5092 9.3317 19.6064 9.21048 19.6511 9.03432C19.6766 8.93897 19.683 8.83392 19.675 8.72402C19.6702 8.66907 19.6622 8.61412 19.6495 8.55756C19.6351 8.50261 19.616 8.44927 19.5937 8.39432C19.4581 8.47513 19.3656 8.61574 19.3242 8.80806C19.2875 8.96321 19.2875 9.12968 19.3194 9.29614L19.1201 8.96806C19.0515 8.86139 18.9718 8.75958 18.8984 8.65614C19.0132 8.57372 19.0946 8.44119 19.1233 8.26018C19.1567 8.05978 19.0961 7.85129 18.9909 7.64281C18.8681 7.73493 18.79 7.88846 18.7708 8.08079C18.7549 8.23594 18.7836 8.39271 18.8267 8.55756C18.7549 8.45089 18.6704 8.35554 18.5859 8.25695L18.3339 7.96604C18.436 7.86907 18.503 7.73331 18.5046 7.55554C18.5046 7.36483 18.4408 7.14826 18.3084 6.9624C18.1968 7.07069 18.1442 7.22099 18.1426 7.41655C18.1426 7.57331 18.184 7.73331 18.2526 7.88362C18.0692 7.70261 17.8906 7.51513 17.6865 7.35675C17.7774 7.2517 17.8252 7.10786 17.8109 6.92846C17.7981 6.73291 17.6961 6.54705 17.5478 6.37574C17.4521 6.4921 17.4122 6.65372 17.4394 6.83958C17.4489 6.91554 17.4697 6.99149 17.5015 7.06422C17.5287 7.14018 17.5637 7.21776 17.6052 7.28887L17.4553 7.16281C17.4043 7.12402 17.3501 7.08685 17.2974 7.04968L16.9785 6.8218C17.0567 6.70543 17.0885 6.55836 17.0487 6.3919C17.0072 6.21089 16.894 6.02988 16.7314 5.87634C16.65 6.00079 16.6309 6.16402 16.6739 6.34665C16.7106 6.49857 16.7904 6.64079 16.894 6.76685C16.6676 6.63594 16.4491 6.48887 16.2083 6.38382C16.2705 6.26261 16.2849 6.11554 16.2291 5.95069C16.1988 5.86341 16.1509 5.77614 16.0903 5.69695C16.0265 5.62099 15.9468 5.55149 15.8591 5.48846C15.7953 5.62261 15.7937 5.78261 15.8591 5.95069C15.9165 6.08806 16.0074 6.22705 16.1222 6.34341L15.9038 6.23836C15.8304 6.20442 15.7539 6.17857 15.6789 6.14947C15.5689 6.04442 15.4286 5.93937 15.2563 5.88766C15.057 5.82947 14.8609 5.82139 14.6966 5.85695C14.8242 5.97816 14.9869 6.07513 15.1782 6.1317C15.3425 6.1818 15.5019 6.21412 15.6566 6.20442C15.7299 6.23513 15.8065 6.26099 15.8798 6.29493L16.0951 6.39998C15.9341 6.38382 15.781 6.39513 15.6486 6.46624C15.4892 6.54867 15.3935 6.6715 15.3504 6.8121C15.4397 6.82018 15.5306 6.81533 15.6183 6.80079C15.7044 6.78947 15.7889 6.76846 15.8671 6.73291C16.0138 6.66826 16.1206 6.56483 16.178 6.442C16.4156 6.54705 16.6325 6.69412 16.8573 6.82503C16.6963 6.79271 16.5384 6.79594 16.3997 6.84281C16.2338 6.89937 16.1222 7.01089 16.0632 7.14826C16.2386 7.1919 16.422 7.19028 16.5926 7.13533C16.7505 7.082 16.8701 6.99473 16.9418 6.87836L17.2576 7.10463C17.3086 7.1418 17.3628 7.17897 17.4138 7.21776L17.5605 7.34382C17.484 7.31634 17.4075 7.29533 17.3325 7.28725C17.2528 7.2824 17.1778 7.28725 17.1061 7.30503C16.9291 7.34705 16.8031 7.44564 16.7266 7.57655C16.902 7.63796 17.0949 7.64927 17.2639 7.62341C17.4234 7.59594 17.5558 7.51998 17.6419 7.4117C17.8428 7.57008 18.0198 7.75594 18.2 7.93695C18.0501 7.86745 17.8954 7.83351 17.7519 7.84644C17.5749 7.85937 17.4282 7.95311 17.3389 8.07432C17.5111 8.15351 17.6881 8.20362 17.8715 8.18907C18.0405 8.17776 18.1808 8.11634 18.2813 8.01776L18.5285 8.30705C18.6098 8.40402 18.6943 8.49937 18.7661 8.60604C18.6321 8.5123 18.4727 8.46867 18.326 8.46543C18.1394 8.4622 17.9895 8.5317 17.8827 8.64321C18.0389 8.74826 18.2335 8.80321 18.4089 8.81937C18.5747 8.82907 18.7214 8.78867 18.8346 8.70139C18.908 8.80483 18.9861 8.90503 19.0531 9.0117L19.2476 9.33493C19.1169 9.23311 18.975 9.16038 18.8298 9.13937C18.6417 9.11351 18.4806 9.16846 18.361 9.26867C18.3993 9.29776 18.4408 9.32523 18.4806 9.35109C18.5189 9.37857 18.5604 9.40281 18.6002 9.42382C18.6831 9.46584 18.7724 9.49654 18.8649 9.51109C19.0324 9.54018 19.187 9.51594 19.3114 9.44483C19.3752 9.55149 19.4246 9.66786 19.482 9.77937C19.5347 9.89412 19.6 10.0024 19.6431 10.1204C19.5315 9.99756 19.3832 9.91675 19.2413 9.87634C19.0563 9.82947 18.892 9.8618 18.7597 9.94745C18.8904 10.0897 19.0611 10.1963 19.2413 10.2513C19.4023 10.303 19.5586 10.2982 19.6909 10.2416L19.8281 10.5891C19.8679 10.707 19.9014 10.8266 19.9381 10.9462C19.8344 10.8137 19.7164 10.7087 19.5729 10.6553C19.388 10.5858 19.2173 10.5988 19.0738 10.6683C19.203 10.8234 19.3449 10.9559 19.5187 11.0335C19.6782 11.103 19.836 11.1176 19.978 11.0788C20.0178 11.1967 20.0402 11.318 20.0657 11.4376L20.1438 11.8012C20.0513 11.6574 19.9349 11.5394 19.8042 11.4666C19.6335 11.3729 19.4629 11.3648 19.3082 11.4182C19.4023 11.5927 19.541 11.7414 19.7133 11.84C19.8679 11.9289 20.0146 11.9644 20.1629 11.9418C20.19 12.1858 20.2363 12.4299 20.2363 12.6755C20.2028 12.598 20.1613 12.5252 20.1151 12.4638C20.0641 12.3992 20.0051 12.3458 19.9429 12.3022C19.777 12.1875 19.6048 12.16 19.4438 12.1939C19.4852 12.2877 19.5379 12.3749 19.6 12.4541C19.6638 12.5349 19.7228 12.6077 19.8026 12.6658C19.9413 12.7741 20.0944 12.8275 20.2443 12.8226C20.2634 13.0683 20.2443 13.3107 20.2315 13.5547C20.1773 13.3915 20.096 13.2493 19.9859 13.1458C19.8392 13.0101 19.659 12.9616 19.4964 12.9761C19.5331 13.0747 19.5682 13.1701 19.6144 13.2574C19.6622 13.3446 19.7228 13.4254 19.7946 13.4949C19.9253 13.621 20.0736 13.6937 20.2235 13.7066C20.2235 13.8279 20.2012 13.9475 20.1821 14.0671L20.1263 14.4258C20.088 14.2561 20.021 14.1042 19.9206 13.9879C19.7898 13.8343 19.624 13.7648 19.4549 13.76C19.4852 13.9636 19.5634 14.1576 19.6957 14.3176C19.8137 14.4598 19.9556 14.5503 20.1039 14.5842L19.9253 15.2824C19.9046 15.1079 19.8504 14.9462 19.7627 14.8169C19.6463 14.6456 19.49 14.5567 19.3194 14.5309C19.3274 14.7394 19.388 14.9446 19.5044 15.1224C19.6032 15.2776 19.7244 15.3842 19.8711 15.4343L19.7483 15.7705C19.7085 15.8836 19.6686 15.9967 19.6128 16.1018C19.6287 15.9321 19.5825 15.7608 19.5107 15.6218C19.4119 15.4343 19.2636 15.3244 19.0961 15.2776C19.0898 15.3842 19.0961 15.4909 19.1185 15.5959C19.128 15.6493 19.144 15.6994 19.1599 15.7511C19.1727 15.7996 19.1902 15.8497 19.211 15.8949C19.2875 16.0614 19.4023 16.1858 19.541 16.2537L19.388 16.5753C19.3353 16.6788 19.27 16.7774 19.2094 16.8792C19.2365 16.7046 19.2349 16.543 19.1695 16.3911C19.0882 16.1891 18.951 16.0598 18.7884 15.9935C18.7708 16.1002 18.7708 16.2117 18.7772 16.3167C18.7804 16.4202 18.7964 16.5252 18.8283 16.6238C18.8873 16.8016 18.9893 16.9422 19.1201 17.0279C19.0069 17.2347 18.857 17.4157 18.7198 17.6048C18.7645 17.4335 18.7724 17.2638 18.7374 17.1119C18.6879 16.905 18.5572 16.7531 18.4025 16.6675C18.3786 16.7757 18.3547 16.8792 18.3451 16.9875C18.3355 17.0925 18.3451 17.1992 18.3658 17.3058C18.4073 17.4933 18.4918 17.6468 18.613 17.7503C18.4663 17.9281 18.3036 18.0961 18.1505 18.2707C18.2127 18.1026 18.2367 17.9313 18.2175 17.7729C18.1904 17.5596 18.0868 17.398 17.9401 17.2913C17.8476 17.4885 17.8045 17.7083 17.8284 17.9281C17.8508 18.1236 17.9082 18.2772 18.0198 18.3967L17.7647 18.6295C17.6801 18.7054 17.5988 18.7895 17.5047 18.8557C17.5494 18.7814 17.5813 18.699 17.6004 18.6149C17.6211 18.5325 17.6307 18.4485 17.6291 18.366C17.6259 18.1446 17.5382 17.9701 17.4043 17.8456C17.2879 18.0331 17.2321 18.2626 17.2209 18.4743C17.2113 18.665 17.2592 18.8347 17.3548 18.9673L17.0806 19.1741C16.9913 19.2436 16.8892 19.2953 16.7935 19.3567C16.8972 19.2145 16.9658 19.0594 16.9785 18.8897C17.0008 18.6634 16.9323 18.4759 16.8111 18.3353C16.7457 18.4258 16.6915 18.526 16.6484 18.6327C16.6038 18.7313 16.5687 18.8347 16.5528 18.943C16.5241 19.1353 16.5528 19.3131 16.6309 19.4569C16.4411 19.583 16.2338 19.6735 16.0313 19.7737C16.1493 19.638 16.2354 19.4877 16.2737 19.3341C16.3215 19.1095 16.2737 18.9107 16.1701 18.7539C16.1318 18.7976 16.0967 18.8412 16.0648 18.8897C16.0313 18.9349 15.9978 18.9769 15.9691 19.0254C15.9117 19.1208 15.8671 19.2226 15.8368 19.3309C15.7873 19.5232 15.7937 19.7058 15.8559 19.8594C15.6502 19.9499 15.4365 20.0178 15.2276 20.0986C15.3616 19.9741 15.4636 19.8319 15.5195 19.68C15.5976 19.4699 15.5721 19.2662 15.486 19.0965C15.3106 19.2372 15.167 19.4165 15.0841 19.6315C15.0124 19.8238 14.9948 19.9984 15.0379 20.16C14.8226 20.2149 14.6089 20.2747 14.3921 20.3232C14.5404 20.2182 14.6568 20.0808 14.7301 19.9337C14.8306 19.7268 14.8322 19.5232 14.7668 19.3422C14.5723 19.4618 14.4096 19.6347 14.3012 19.8384C14.2039 20.0081 14.1656 20.1858 14.1896 20.3539L13.8834 20.4008C13.7813 20.417 13.6777 20.4331 13.574 20.4347L13.472 20.4396V20.2844C13.472 20.2343 13.4321 20.1939 13.3827 20.1939H13.3715C13.3221 20.1939 13.2822 20.2343 13.2822 20.2844V20.766C13.2822 20.8161 13.3221 20.8565 13.3715 20.8565H13.3827C13.4321 20.8565 13.472 20.8161 13.472 20.766V20.585L13.5884 20.5786C13.6936 20.5786 13.7973 20.5608 13.9025 20.543L14.2151 20.4945C14.2486 20.661 14.3458 20.8178 14.5228 20.9454C14.7222 21.078 14.9916 21.1329 15.285 21.1264C15.2484 20.9357 15.1192 20.7677 14.9151 20.64C14.7684 20.5479 14.5994 20.4945 14.4208 20.4606C14.6424 20.4105 14.8593 20.3475 15.0793 20.2909C15.1304 20.4493 15.2484 20.5996 15.4318 20.6885C15.6422 20.7919 15.9181 20.8258 16.2035 20.7838C16.1445 20.6028 15.9994 20.4541 15.7826 20.3507C15.6279 20.2763 15.4525 20.2359 15.2723 20.2279C15.4844 20.1454 15.7028 20.0759 15.9117 19.9806C15.9803 20.1325 16.1079 20.2553 16.3024 20.3281C16.414 20.3685 16.5368 20.3895 16.6676 20.3911C16.7329 20.3911 16.8015 20.3911 16.8685 20.3798C16.9339 20.3668 17.0024 20.3507 17.0694 20.3281C16.9897 20.1551 16.8318 20.0291 16.6118 19.9612C16.4491 19.9046 16.2705 19.8836 16.0903 19.8949C16.2976 19.7931 16.5081 19.6994 16.6995 19.5701C16.7856 19.7107 16.9259 19.819 17.1268 19.8691C17.2416 19.8965 17.366 19.9046 17.4952 19.8917C17.6195 19.8723 17.7487 19.8319 17.8763 19.7753C17.779 19.6169 17.6084 19.5087 17.3851 19.4683C17.2241 19.4424 17.0439 19.4408 16.8653 19.4683C16.9642 19.4036 17.0678 19.3519 17.1587 19.2792L17.4362 19.0675C17.5366 19.1951 17.6881 19.2873 17.8938 19.3147C18.1266 19.3487 18.3722 19.2679 18.6162 19.1337C18.503 18.9899 18.3212 18.9026 18.0947 18.8848C18.0134 18.8784 17.9273 18.8848 17.8444 18.8961C17.7615 18.9091 17.677 18.9301 17.5877 18.9527C17.6849 18.8864 17.7647 18.7992 17.8508 18.7216L18.1091 18.484C18.2207 18.5955 18.3897 18.6763 18.5859 18.6699C18.8091 18.665 19.0515 18.5681 19.2779 18.4097C19.1504 18.282 18.9606 18.2157 18.7342 18.2254C18.5667 18.2319 18.3993 18.2772 18.2414 18.3531C18.3961 18.1769 18.5588 18.0056 18.7087 17.8214C18.833 17.9216 18.9957 17.9701 19.1918 17.9442C19.3034 17.9297 19.4167 17.8925 19.5267 17.8376C19.6399 17.781 19.7499 17.7066 19.8408 17.6081C19.6989 17.4949 19.5171 17.461 19.2955 17.4949C19.128 17.5208 18.9654 17.5838 18.8155 17.6743C18.9526 17.4804 19.1057 17.2978 19.2189 17.0877C19.3545 17.1701 19.5203 17.2008 19.7133 17.1523C19.8217 17.1248 19.9301 17.078 20.0338 17.0101C20.1342 16.9422 20.2235 16.8501 20.308 16.745C20.1582 16.6529 19.9668 16.6367 19.7595 16.6998C19.6112 16.7499 19.447 16.8258 19.3098 16.9341C19.3704 16.8307 19.4358 16.7305 19.49 16.6238L19.6447 16.299C19.785 16.3636 19.954 16.3749 20.1422 16.3071C20.1948 16.2877 20.2459 16.2634 20.2969 16.2343C20.3431 16.2036 20.3894 16.1681 20.4324 16.126C20.5201 16.0452 20.6015 15.9466 20.6732 15.8367C20.5169 15.764 20.3256 15.7705 20.1279 15.8561C19.9764 15.9208 19.852 16.0275 19.718 16.1438C19.7739 16.0372 19.8137 15.9224 19.8536 15.8077L19.9764 15.4666C20.1215 15.5119 20.2937 15.5054 20.4659 15.4149C20.6525 15.3131 20.8135 15.124 20.9331 14.8897C20.7705 14.838 20.5823 14.8654 20.3973 14.9721C20.257 15.0545 20.1326 15.1709 20.0306 15.3099L20.2092 14.6004C20.3591 14.6295 20.5185 14.6004 20.6732 14.4889L20.6716 14.4953Z" fill="#231F20"/>
<path d="M12.5356 20.1988H12.5244C12.475 20.1988 12.4351 20.2392 12.4351 20.2893V20.4444L12.3331 20.4396C12.2294 20.4396 12.1258 20.4218 12.0237 20.4056L11.7175 20.3588C11.7415 20.1907 11.7032 20.0129 11.6059 19.8432C11.4975 19.6396 11.3348 19.465 11.1403 19.3471C11.0749 19.5281 11.0765 19.7317 11.177 19.9386C11.2503 20.0856 11.3683 20.223 11.515 20.3281C11.2982 20.2796 11.0845 20.2198 10.8692 20.1648C10.9123 20.0016 10.8947 19.8271 10.823 19.6363C10.7417 19.4214 10.5965 19.242 10.4211 19.1014C10.335 19.2727 10.3095 19.4763 10.3877 19.6848C10.4435 19.8368 10.5455 19.979 10.6795 20.1034C10.4706 20.0226 10.2553 19.9547 10.0512 19.8642C10.1134 19.7091 10.1198 19.5264 10.0703 19.3357C10.0416 19.2275 9.99538 19.124 9.93797 19.0303C9.91087 18.9834 9.87578 18.9398 9.8423 18.8945C9.81041 18.8477 9.77532 18.8024 9.73705 18.7588C9.6334 18.9155 9.58397 19.1143 9.6334 19.339C9.67167 19.4941 9.75619 19.6428 9.87578 19.7786C9.67327 19.6784 9.46597 19.5879 9.27621 19.4618C9.35594 19.318 9.38305 19.1402 9.35435 18.9479C9.3384 18.8396 9.30492 18.7361 9.25867 18.6376C9.21562 18.5309 9.1614 18.4307 9.09602 18.3402C8.97643 18.4808 8.90627 18.6683 8.92859 18.8945C8.93975 19.0642 9.00991 19.2178 9.11356 19.3616C9.01789 19.3002 8.91583 19.2485 8.82654 19.1774L8.55226 18.9721C8.64794 18.8396 8.69418 18.6683 8.68621 18.4792C8.67505 18.2675 8.61924 18.038 8.50283 17.8505C8.36888 17.9749 8.28118 18.1495 8.27799 18.3709C8.27799 18.4533 8.28756 18.5357 8.30669 18.6198C8.32583 18.7038 8.35613 18.7862 8.40237 18.8606C8.30829 18.7959 8.22856 18.7103 8.14245 18.6343L7.88731 18.4016C7.99894 18.282 8.05634 18.1285 8.07867 17.9329C8.10259 17.7131 8.05953 17.4933 7.96704 17.2961C7.82034 17.4028 7.71669 17.5628 7.68958 17.7778C7.67045 17.9361 7.69596 18.1075 7.75656 18.2755C7.60348 18.101 7.44083 17.9345 7.29412 17.7551C7.41531 17.6517 7.50142 17.4982 7.54129 17.3107C7.56361 17.2056 7.56999 17.099 7.56202 16.9923C7.55245 16.8856 7.52853 16.7806 7.50461 16.6723C7.34993 16.7563 7.22077 16.9099 7.16974 17.1168C7.13466 17.2703 7.14264 17.4384 7.18728 17.6097C7.05015 17.4206 6.90025 17.2396 6.78704 17.0327C6.9178 16.9471 7.01985 16.8064 7.07885 16.6287C7.11074 16.5285 7.12669 16.425 7.12988 16.3216C7.13626 16.2165 7.13626 16.105 7.11872 15.9984C6.95607 16.0646 6.81893 16.1939 6.73761 16.3959C6.67382 16.5495 6.67223 16.7111 6.69774 16.884C6.63715 16.7822 6.57177 16.6836 6.51914 16.5802L6.36606 16.2586C6.5032 16.1907 6.6196 16.0646 6.69615 15.8998C6.71688 15.8545 6.73442 15.8044 6.74717 15.7559C6.76312 15.7058 6.77747 15.6541 6.78863 15.6008C6.80936 15.4974 6.81574 15.3891 6.81096 15.2824C6.64352 15.3293 6.49363 15.4392 6.39636 15.6266C6.3246 15.764 6.27836 15.937 6.29431 16.1066C6.23849 16.0016 6.19863 15.8885 6.15876 15.7753L6.03598 15.4392C6.18268 15.3891 6.30387 15.2824 6.40274 15.1273C6.51915 14.9511 6.57974 14.7442 6.58771 14.5357C6.41709 14.5616 6.26082 14.6505 6.14441 14.8218C6.05671 14.9511 6.00249 15.1111 5.98176 15.2873L5.80317 14.5891C5.95147 14.5568 6.09339 14.4662 6.21139 14.3224C6.34374 14.164 6.42028 13.9685 6.45217 13.7648C6.28155 13.7697 6.11571 13.8392 5.98655 13.9927C5.88609 14.1107 5.81911 14.261 5.78084 14.4307L5.72503 14.0719C5.7059 13.9523 5.68517 13.8327 5.68357 13.7115C5.83506 13.6986 5.98336 13.6258 6.11252 13.4998C6.18428 13.4303 6.24487 13.3495 6.29271 13.2622C6.33896 13.1749 6.37404 13.0796 6.41071 12.981C6.24806 12.9664 6.06787 13.0149 5.92117 13.1507C5.81114 13.2525 5.72982 13.3963 5.6756 13.5596C5.66444 13.3155 5.64371 13.0715 5.66284 12.8275C5.81274 12.8323 5.96422 12.779 6.10455 12.6707C6.18428 12.6109 6.24168 12.5382 6.30706 12.459C6.37085 12.3798 6.42347 12.2925 6.46333 12.1988C6.30228 12.1648 6.12847 12.1923 5.96422 12.3071C5.90044 12.3523 5.84303 12.4056 5.79201 12.4687C5.74576 12.5317 5.7043 12.6044 5.67082 12.6804C5.67082 12.4331 5.71546 12.1907 5.74417 11.9466C5.89247 11.9693 6.04076 11.9337 6.19385 11.8448C6.36606 11.7462 6.50479 11.5976 6.59888 11.423C6.4442 11.3713 6.27358 11.3778 6.10295 11.4715C5.9706 11.5442 5.85579 11.6622 5.7633 11.806L5.84144 11.4424C5.86855 11.3228 5.88928 11.2 5.92914 11.0836C6.06947 11.124 6.22893 11.1095 6.38839 11.0384C6.5622 10.9608 6.70571 10.8266 6.83328 10.6731C6.68977 10.6036 6.51755 10.5907 6.33417 10.6602C6.19066 10.7135 6.07266 10.8186 5.96901 10.9511C6.00568 10.8315 6.03917 10.7119 6.07903 10.5939L6.21617 10.2464C6.35012 10.303 6.50479 10.3079 6.66585 10.2561C6.84604 10.2012 7.01826 10.0961 7.14742 9.95231C7.01347 9.86665 6.84923 9.83271 6.66585 9.8812C6.52393 9.9216 6.37563 10.0008 6.26401 10.1252C6.30706 10.0056 6.37244 9.89736 6.42506 9.78423C6.48247 9.67271 6.5319 9.55635 6.59569 9.44968C6.72006 9.52079 6.87634 9.54665 7.04217 9.51594C7.13466 9.5014 7.22396 9.47069 7.30688 9.42867C7.34834 9.40766 7.3882 9.38342 7.42647 9.35594C7.46793 9.33008 7.5078 9.30423 7.54607 9.27352C7.42647 9.17332 7.26382 9.11837 7.07726 9.14423C6.93215 9.16685 6.79023 9.23796 6.65947 9.33978L6.85401 9.01655C6.92099 8.90988 6.99912 8.80968 7.07247 8.70625C7.18569 8.7919 7.33239 8.83392 7.49823 8.82423C7.67364 8.80806 7.86818 8.75311 8.02445 8.64806C7.91761 8.53655 7.76772 8.46705 7.58115 8.47029C7.43445 8.47352 7.27499 8.51715 7.14104 8.61089C7.2128 8.50423 7.29572 8.40887 7.37864 8.3119L7.6258 8.02261C7.72626 8.1212 7.86818 8.18099 8.03561 8.19392C8.21899 8.20847 8.39599 8.15837 8.56821 8.07918C8.47891 7.95958 8.33221 7.86584 8.15521 7.8513C8.01169 7.83837 7.85542 7.87231 7.70712 7.9418C7.88731 7.76079 8.06432 7.57493 8.26524 7.41655C8.35134 7.52483 8.4837 7.60079 8.64316 7.62827C8.81378 7.65574 9.00513 7.64281 9.18054 7.5814C9.104 7.45049 8.97802 7.3519 8.80102 7.30988C8.72926 7.29372 8.65272 7.28726 8.57459 7.2921C8.49805 7.30018 8.42151 7.31958 8.34656 7.34867L8.49326 7.22261C8.54429 7.18382 8.59851 7.14665 8.64953 7.10948L8.96527 6.88322C9.03702 6.99958 9.15662 7.08685 9.31448 7.14019C9.48511 7.19513 9.66849 7.19675 9.84389 7.15311C9.7833 7.01574 9.67168 6.90423 9.50743 6.84766C9.3703 6.80079 9.21083 6.79756 9.04978 6.82988C9.27462 6.69897 9.49149 6.5519 9.72908 6.44685C9.78649 6.56968 9.89332 6.67311 10.04 6.73776C10.1198 6.77332 10.2027 6.79433 10.2888 6.80564C10.3765 6.82019 10.4674 6.82503 10.5567 6.81695C10.5136 6.67635 10.4195 6.5519 10.2585 6.47109C10.1245 6.39998 9.97305 6.38867 9.812 6.40483L10.0273 6.29978C10.1006 6.26584 10.1772 6.23998 10.2505 6.20928C10.4052 6.21897 10.5647 6.18665 10.7289 6.13655C10.9202 6.07998 11.0829 5.98301 11.2105 5.8618C11.0462 5.82625 10.8501 5.83433 10.6508 5.89251C10.4785 5.94423 10.3382 6.04928 10.2282 6.15433C10.1532 6.18342 10.0767 6.20928 10.0034 6.24322L9.78489 6.34827C9.9013 6.2319 9.99219 6.09291 10.048 5.95554C10.115 5.78746 10.1134 5.62746 10.048 5.49332C9.9603 5.55635 9.88057 5.62584 9.81678 5.7018C9.75459 5.78261 9.70835 5.86827 9.67805 5.95554C9.62224 6.12039 9.63659 6.26746 9.69878 6.38867C9.458 6.49372 9.23954 6.64079 9.0131 6.7717C9.11675 6.64564 9.19648 6.50342 9.23316 6.3515C9.27781 6.16887 9.25708 6.00564 9.17575 5.8812C9.0147 6.03473 8.89989 6.21574 8.85843 6.39675C8.81856 6.56322 8.85045 6.71029 8.92859 6.82665L8.60967 7.05453C8.55705 7.0917 8.50283 7.12887 8.4518 7.16766L8.30191 7.29372C8.34497 7.22261 8.37845 7.14503 8.40556 7.06907C8.43586 6.99635 8.45659 6.92039 8.46934 6.84443C8.49486 6.65857 8.45499 6.49695 8.35932 6.38059C8.21102 6.5519 8.11056 6.73776 8.09621 6.93332C8.08186 7.11109 8.12969 7.25493 8.22059 7.3616C8.01648 7.51998 7.83788 7.70746 7.6545 7.88847C7.72307 7.73817 7.76294 7.57978 7.76453 7.4214C7.76453 7.22584 7.71031 7.07554 7.59869 6.96726C7.46634 7.15311 7.40255 7.36968 7.40255 7.56039C7.40255 7.73655 7.46953 7.87392 7.57318 7.97089L7.32123 8.2618C7.23831 8.36039 7.1522 8.45574 7.08045 8.56241C7.1235 8.39756 7.1522 8.24079 7.13626 8.08564C7.11712 7.8917 7.03899 7.73978 6.9162 7.64766C6.81255 7.85776 6.75036 8.06463 6.78385 8.26503C6.81096 8.44443 6.89388 8.57695 7.00869 8.66099C6.93534 8.76443 6.85561 8.86625 6.78704 8.97291L6.58771 9.30099C6.6196 9.13614 6.61961 8.96806 6.58293 8.81291C6.54147 8.62059 6.44898 8.47998 6.31344 8.39918C6.29112 8.45412 6.27198 8.50746 6.25763 8.56241C6.24647 8.61897 6.2369 8.67392 6.23212 8.72887C6.22255 8.83877 6.23212 8.94382 6.25604 9.03918C6.30068 9.21534 6.39796 9.33655 6.52233 9.40766C6.45696 9.51594 6.40433 9.63392 6.34693 9.74544C6.29431 9.8618 6.22893 9.97008 6.18428 10.0897C6.18747 9.91675 6.18109 9.75675 6.12687 9.60645C6.06149 9.41736 5.94668 9.28483 5.80157 9.22019C5.74736 9.45614 5.74257 9.68402 5.81593 9.87311C5.88609 10.046 6.0009 10.1576 6.13325 10.2125L5.99293 10.5648C5.95147 10.6844 5.91798 10.8056 5.87971 10.9252C5.87014 10.7555 5.8239 10.5891 5.75852 10.4485C5.67401 10.2675 5.54484 10.1479 5.39017 10.1026C5.34711 10.3402 5.39017 10.5761 5.48584 10.7572C5.57355 10.9204 5.69792 11.0174 5.83984 11.0578C5.79838 11.1774 5.77606 11.3002 5.74895 11.423L5.66922 11.7899C5.64211 11.6234 5.5879 11.465 5.4986 11.3309C5.38538 11.1563 5.23868 11.0513 5.07922 11.0254C5.08241 11.2743 5.13981 11.5054 5.25303 11.6735C5.35668 11.8271 5.50338 11.9111 5.6469 11.9337C5.61819 12.1826 5.57036 12.4267 5.56876 12.6772C5.54165 12.5947 5.50817 12.5172 5.4683 12.4428C5.43163 12.3701 5.38857 12.3022 5.33914 12.2392C5.20998 12.0808 5.05211 11.9903 4.88787 11.9838C4.89903 12.1083 4.92614 12.2279 4.966 12.3345C5.00427 12.4412 5.06965 12.5365 5.13822 12.6141C5.26579 12.7563 5.41409 12.8226 5.56398 12.8275C5.54325 13.0747 5.56398 13.322 5.57355 13.5693C5.50338 13.4125 5.40611 13.2703 5.28652 13.1588C5.13184 13.0149 4.97079 12.9454 4.80176 12.9568C4.82249 13.0796 4.87033 13.1959 4.92933 13.2978C4.98673 13.3996 5.0553 13.4901 5.13503 13.5596C5.27695 13.6856 5.43163 13.7341 5.58152 13.7228C5.58152 13.8456 5.60225 13.9685 5.62138 14.0897L5.6756 14.4533C5.58949 14.3046 5.47787 14.1737 5.34711 14.0768C5.1733 13.9491 4.99311 13.9006 4.82887 13.9313C4.92135 14.1753 5.06327 14.379 5.23549 14.5002C5.39017 14.6101 5.55122 14.6408 5.69952 14.6117L5.87811 15.3212C5.77765 15.1838 5.65168 15.0658 5.51136 14.9834C5.32479 14.8768 5.13822 14.8477 4.97557 14.901C5.09516 15.1353 5.25781 15.3244 5.44279 15.4262C5.61501 15.5168 5.78722 15.5248 5.93233 15.478L6.05512 15.819C6.09498 15.9337 6.13485 16.0485 6.19066 16.1551C6.05512 16.0372 5.93074 15.9305 5.78084 15.8675C5.58311 15.7818 5.39176 15.7753 5.23549 15.8481C5.30725 15.958 5.38857 16.0582 5.47627 16.1374C5.52092 16.1794 5.56557 16.2149 5.61182 16.2456C5.66284 16.2747 5.71387 16.299 5.76649 16.3184C5.95466 16.3862 6.12209 16.3765 6.26401 16.3103L6.41868 16.6351C6.4729 16.7418 6.53828 16.842 6.59888 16.9454C6.46174 16.8372 6.2975 16.7612 6.1492 16.7111C5.9419 16.6464 5.75055 16.6642 5.60065 16.7563C5.68517 16.8598 5.77287 16.9519 5.87493 17.0214C5.97857 17.0893 6.08701 17.1378 6.19544 17.1636C6.38679 17.2105 6.55423 17.1798 6.68977 17.099C6.80298 17.3091 6.95447 17.4933 7.0932 17.6856C6.94331 17.5951 6.78066 17.5305 6.61323 17.5062C6.39158 17.4723 6.20979 17.5062 6.06787 17.6194C6.15876 17.718 6.26879 17.7923 6.38201 17.8489C6.49204 17.9038 6.60525 17.941 6.71688 17.9555C6.91301 17.9814 7.07566 17.9313 7.20004 17.8327C7.34993 18.017 7.51258 18.1883 7.66726 18.3644C7.50939 18.2885 7.34196 18.2432 7.17453 18.2367C6.94809 18.2271 6.75834 18.2933 6.63077 18.421C6.8572 18.5794 7.09958 18.6763 7.32282 18.6812C7.51896 18.6877 7.68799 18.6069 7.79961 18.4953L8.05794 18.7329C8.14405 18.8121 8.22537 18.8978 8.32105 18.964C8.23175 18.9414 8.14883 18.9204 8.06432 18.9075C7.9814 18.8945 7.89529 18.8897 7.81396 18.8961C7.58753 18.9123 7.40574 18.9996 7.29253 19.145C7.5381 19.2792 7.78207 19.36 8.01488 19.326C8.22059 19.2986 8.37207 19.2064 8.47253 19.0788L8.74999 19.2905C8.84089 19.3632 8.94454 19.4149 9.0434 19.4796C8.86481 19.4521 8.68462 19.4537 8.52356 19.4796C8.30032 19.52 8.12969 19.6283 8.03242 19.7867C8.15999 19.8432 8.28915 19.8836 8.41353 19.903C8.5427 19.9159 8.66708 19.9095 8.78189 19.8804C8.98281 19.8303 9.12313 19.7236 9.20924 19.5814C9.40059 19.7107 9.61108 19.8044 9.81838 19.9062C9.63819 19.8965 9.45959 19.9159 9.29694 19.9725C9.07689 20.0404 8.91902 20.1664 8.83929 20.3394C8.90627 20.362 8.97483 20.3782 9.04021 20.3911C9.10719 20.4008 9.17575 20.4024 9.24113 20.4024C9.37189 20.4024 9.49467 20.3798 9.6063 20.3394C9.80084 20.2667 9.92841 20.1438 9.99697 19.9919C10.2059 20.0873 10.4243 20.1568 10.6364 20.2392C10.4562 20.2489 10.2824 20.2877 10.1261 20.362C9.90927 20.4654 9.76416 20.6141 9.70516 20.7951C9.9906 20.8388 10.2665 20.8048 10.4769 20.6998C10.6603 20.6109 10.7767 20.4606 10.8294 20.3022C11.0494 20.3588 11.2663 20.4218 11.4879 20.4719C11.3093 20.5058 11.1403 20.5592 10.9936 20.6513C10.7895 20.7774 10.6603 20.9471 10.6237 21.1378C10.9171 21.1442 11.1865 21.0893 11.3859 20.9567C11.5629 20.8291 11.6601 20.6707 11.6936 20.5058L12.0062 20.5543C12.1098 20.5721 12.2151 20.5899 12.3203 20.5899L12.4367 20.5963V20.7774C12.4367 20.8275 12.4766 20.8679 12.526 20.8679H12.5372C12.5866 20.8679 12.6265 20.8275 12.6265 20.7774V20.2957C12.6265 20.2456 12.5866 20.2052 12.5372 20.2052L12.5356 20.1988Z" fill="#231F20"/>
<path d="M12.8173 20.1988H12.8061C12.7568 20.1988 12.7168 20.2393 12.7168 20.2893V20.7709C12.7168 20.8209 12.7568 20.8614 12.8061 20.8614H12.8173C12.8666 20.8614 12.9066 20.8209 12.9066 20.7709V20.2893C12.9066 20.2393 12.8666 20.1988 12.8173 20.1988Z" fill="#231F20"/>
<path d="M13.1005 20.1988H13.0893C13.04 20.1988 13 20.2393 13 20.2893V20.7709C13 20.8209 13.04 20.8614 13.0893 20.8614H13.1005C13.1498 20.8614 13.1898 20.8209 13.1898 20.7709V20.2893C13.1898 20.2393 13.1498 20.1988 13.1005 20.1988Z" fill="#231F20"/>
</g>
<path d="M20.7156 14.4517C20.8878 14.3305 21.0297 14.1269 21.1222 13.8828C20.9579 13.8521 20.7778 13.9006 20.6039 14.0283C20.4732 14.1253 20.3616 14.2562 20.2755 14.4049L20.3297 14.0412C20.3488 13.92 20.3695 13.7972 20.3695 13.6743C20.521 13.6857 20.6741 13.6372 20.816 13.5111C20.8958 13.4416 20.9643 13.3527 21.0217 13.2493C21.0807 13.1475 21.1286 13.0311 21.1493 12.9083C20.9787 12.897 20.8192 12.9665 20.6645 13.1103C20.5449 13.2218 20.4477 13.3624 20.3775 13.5208C20.3887 13.2735 20.4078 13.0263 20.3871 12.779C20.537 12.7725 20.6853 12.7079 20.8128 12.5657C20.8814 12.4881 20.9484 12.3927 20.9851 12.2861C21.0249 12.1794 21.0504 12.0598 21.0632 11.9354C20.8989 11.9434 20.7411 12.0323 20.6119 12.1907C20.5625 12.2537 20.5194 12.3216 20.4827 12.3944C20.4413 12.4687 20.4078 12.5479 20.3823 12.6287C20.3823 12.3798 20.3345 12.1341 20.3042 11.8853C20.4477 11.8626 20.5944 11.7786 20.698 11.6251C20.8128 11.457 20.8702 11.2275 20.8718 10.977C20.7124 11.0045 20.5657 11.1095 20.4525 11.2824C20.3647 11.4166 20.3089 11.575 20.2818 11.7414L20.2021 11.3746C20.175 11.2517 20.1527 11.1273 20.1112 11.0093C20.2515 10.9689 20.3759 10.8719 20.4652 10.7087C20.5625 10.5277 20.6023 10.2917 20.5609 10.0541C20.4062 10.0994 20.2786 10.219 20.1925 10.4C20.1272 10.5406 20.0793 10.7071 20.0713 10.8768C20.0331 10.7572 19.9996 10.6343 19.9581 10.5164L19.8178 10.164C19.9517 10.1091 20.065 9.99758 20.1351 9.82465C20.2085 9.63556 20.2037 9.4093 20.1495 9.17172C20.0044 9.23637 19.8896 9.3689 19.8242 9.55799C19.77 9.70829 19.7636 9.86829 19.7668 10.0412C19.7221 9.92162 19.6567 9.81172 19.6041 9.69698C19.5451 9.58546 19.4941 9.46748 19.4287 9.3592C19.5531 9.28809 19.6504 9.16688 19.695 8.99071C19.7205 8.89536 19.7269 8.79031 19.7189 8.68041C19.7142 8.62546 19.7062 8.57051 19.6934 8.51395C19.6791 8.459 19.6599 8.40566 19.6376 8.35071C19.5021 8.43152 19.4096 8.57213 19.3681 8.76445C19.3314 8.9196 19.3314 9.08607 19.3633 9.25253L19.164 8.92445C19.0954 8.81778 19.0157 8.71597 18.9424 8.61253C19.0572 8.53011 19.1385 8.39758 19.1672 8.21657C19.2007 8.01617 19.1401 7.80768 19.0349 7.5992C18.9121 7.69132 18.8339 7.84485 18.8148 8.03718C18.7988 8.19233 18.8276 8.3491 18.8706 8.51395C18.7988 8.40728 18.7143 8.31193 18.6298 8.21334L18.3779 7.92243C18.4799 7.82546 18.5469 7.6897 18.5485 7.51193C18.5485 7.32122 18.4847 7.10465 18.3524 6.91879C18.2407 7.02708 18.1881 7.17738 18.1865 7.37294C18.1865 7.5297 18.228 7.6897 18.2965 7.84001C18.1132 7.659 17.9346 7.47152 17.7305 7.31314C17.8214 7.20809 17.8692 7.06425 17.8548 6.88485C17.8421 6.6893 17.74 6.50344 17.5917 6.33213C17.4961 6.44849 17.4562 6.61011 17.4833 6.79597C17.4929 6.87193 17.5136 6.94789 17.5455 7.02061C17.5726 7.09657 17.6077 7.17415 17.6491 7.24526L17.4992 7.1192C17.4482 7.08041 17.394 7.04324 17.3414 7.00607L17.0225 6.77819C17.1006 6.66182 17.1325 6.51475 17.0926 6.34829C17.0512 6.16728 16.9379 5.98627 16.7753 5.83273C16.694 5.95718 16.6748 6.12041 16.7179 6.30304C16.7546 6.45496 16.8343 6.59718 16.9379 6.72324C16.7115 6.59233 16.4931 6.44526 16.2523 6.34021C16.3145 6.219 16.3288 6.07193 16.273 5.90708C16.2427 5.8198 16.1949 5.73253 16.1343 5.65334C16.0705 5.57738 15.9908 5.50789 15.9031 5.44485C15.8393 5.579 15.8377 5.739 15.9031 5.90708C15.9605 6.04445 16.0513 6.18344 16.1662 6.2998L15.9477 6.19475C15.8743 6.16081 15.7978 6.13496 15.7229 6.10586C15.6128 6.00081 15.4725 5.89576 15.3003 5.84405C15.101 5.78587 14.9048 5.77778 14.7406 5.81334C14.8682 5.93455 15.0308 6.03152 15.2222 6.08809C15.3864 6.13819 15.5459 6.17051 15.7005 6.16081C15.7739 6.19152 15.8504 6.21738 15.9238 6.25132L16.1391 6.35637C15.978 6.34021 15.8249 6.35152 15.6926 6.42263C15.5331 6.50506 15.4374 6.62789 15.3944 6.76849C15.4837 6.77657 15.5746 6.77172 15.6623 6.75718C15.7484 6.74587 15.8329 6.72485 15.911 6.6893C16.0577 6.62465 16.1646 6.52122 16.222 6.39839C16.4596 6.50344 16.6764 6.65051 16.9013 6.78142C16.7402 6.7491 16.5824 6.75233 16.4436 6.7992C16.2778 6.85576 16.1662 6.96728 16.1072 7.10465C16.2826 7.14829 16.4659 7.14667 16.6366 7.09172C16.7944 7.03839 16.914 6.95112 16.9858 6.83475L17.3015 7.06102C17.3525 7.09819 17.4068 7.13536 17.4578 7.17415L17.6045 7.30021C17.528 7.27273 17.4514 7.25172 17.3765 7.24364C17.2967 7.23879 17.2218 7.24364 17.15 7.26142C16.973 7.30344 16.8471 7.40203 16.7705 7.53294C16.9459 7.59435 17.1389 7.60566 17.3079 7.5798C17.4674 7.55233 17.5997 7.47637 17.6858 7.36809C17.8867 7.52647 18.0637 7.71233 18.2439 7.89334C18.094 7.82384 17.9394 7.78991 17.7958 7.80283C17.6188 7.81576 17.4721 7.9095 17.3828 8.03071C17.5551 8.10991 17.7321 8.16001 17.9154 8.14546C18.0845 8.13415 18.2248 8.07273 18.3253 7.97415L18.5724 8.26344C18.6537 8.36041 18.7383 8.45576 18.81 8.56243C18.6761 8.46869 18.5166 8.42506 18.3699 8.42182C18.1833 8.41859 18.0334 8.48809 17.9266 8.5996C18.0829 8.70465 18.2774 8.7596 18.4528 8.77576C18.6187 8.78546 18.7654 8.74506 18.8786 8.65778C18.9519 8.76122 19.0301 8.86142 19.097 8.96809L19.2916 9.29132C19.1608 9.1895 19.0189 9.11677 18.8738 9.09576C18.6856 9.06991 18.5246 9.12486 18.405 9.22506C18.4433 9.25415 18.4847 9.28162 18.5246 9.30748C18.5628 9.33496 18.6043 9.3592 18.6442 9.38021C18.7271 9.42223 18.8164 9.45294 18.9089 9.46748C19.0763 9.49657 19.231 9.47233 19.3554 9.40122C19.4191 9.50788 19.4686 9.62425 19.526 9.73576C19.5786 9.85051 19.644 9.95879 19.687 10.0768C19.5754 9.95395 19.4271 9.87314 19.2852 9.83273C19.1002 9.78587 18.936 9.81819 18.8036 9.90384C18.9344 10.0461 19.105 10.1527 19.2852 10.2077C19.4463 10.2594 19.6025 10.2546 19.7349 10.198L19.872 10.5455C19.9119 10.6634 19.9454 10.783 19.982 10.9026C19.8784 10.7701 19.7604 10.6651 19.6169 10.6117C19.4319 10.5422 19.2613 10.5552 19.1178 10.6247C19.2469 10.7798 19.3889 10.9123 19.5627 10.9899C19.7221 11.0594 19.88 11.0739 20.0219 11.0352C20.0618 11.1531 20.0841 11.2743 20.1096 11.3939L20.1877 11.7576C20.0953 11.6137 19.9789 11.4958 19.8481 11.423C19.6775 11.3293 19.5069 11.3212 19.3522 11.3746C19.4463 11.5491 19.585 11.6978 19.7572 11.7964C19.9119 11.8853 20.0586 11.9208 20.2069 11.8982C20.234 12.1422 20.2802 12.3863 20.2802 12.6319C20.2467 12.5544 20.2053 12.4816 20.159 12.4202C20.108 12.3556 20.049 12.3022 19.9868 12.2586C19.821 12.1438 19.6488 12.1164 19.4877 12.1503C19.5292 12.244 19.5818 12.3313 19.644 12.4105C19.7078 12.4913 19.7668 12.564 19.8465 12.6222C19.9852 12.7305 20.1383 12.7838 20.2882 12.779C20.3073 13.0247 20.2882 13.2671 20.2755 13.5111C20.2212 13.3479 20.1399 13.2057 20.0299 13.1022C19.8832 12.9665 19.703 12.918 19.5403 12.9325C19.577 13.0311 19.6121 13.1265 19.6583 13.2137C19.7062 13.301 19.7668 13.3818 19.8385 13.4513C19.9693 13.5774 20.1176 13.6501 20.2675 13.663C20.2675 13.7842 20.2452 13.9038 20.226 14.0234L20.1702 14.3822C20.1319 14.2125 20.065 14.0606 19.9645 13.9442C19.8337 13.7907 19.6679 13.7212 19.4989 13.7164C19.5292 13.92 19.6073 14.1139 19.7397 14.2739C19.8577 14.4162 19.9996 14.5067 20.1479 14.5406L19.9693 15.2388C19.9486 15.0642 19.8943 14.9026 19.8066 14.7733C19.6902 14.602 19.534 14.5131 19.3633 14.4873C19.3713 14.6958 19.4319 14.901 19.5483 15.0788C19.6472 15.2339 19.7684 15.3406 19.9151 15.3907L19.7923 15.7269C19.7524 15.84 19.7126 15.9531 19.6567 16.0582C19.6727 15.8885 19.6264 15.7172 19.5547 15.5782C19.4558 15.3907 19.3075 15.2808 19.1401 15.2339C19.1337 15.3406 19.1401 15.4473 19.1624 15.5523C19.172 15.6057 19.1879 15.6558 19.2039 15.7075C19.2166 15.756 19.2342 15.8061 19.2549 15.8513C19.3314 16.0178 19.4463 16.1422 19.585 16.2101L19.4319 16.5317C19.3793 16.6352 19.3139 16.7337 19.2533 16.8356C19.2804 16.661 19.2788 16.4994 19.2134 16.3475C19.1321 16.1455 18.995 16.0162 18.8323 15.9499C18.8148 16.0566 18.8148 16.1681 18.8212 16.2731C18.8244 16.3766 18.8403 16.4816 18.8722 16.5802C18.9312 16.758 19.0333 16.8986 19.164 16.9842C19.0508 17.1911 18.9009 17.3721 18.7638 17.5612C18.8084 17.3899 18.8164 17.2202 18.7813 17.0683C18.7319 16.8614 18.6011 16.7095 18.4464 16.6238C18.4225 16.7321 18.3986 16.8356 18.389 16.9438C18.3795 17.0489 18.389 17.1556 18.4098 17.2622C18.4512 17.4497 18.5357 17.6032 18.6569 17.7067C18.5102 17.8844 18.3476 18.0525 18.1945 18.2271C18.2567 18.059 18.2806 17.8877 18.2615 17.7293C18.2344 17.516 18.1307 17.3543 17.984 17.2477C17.8915 17.4449 17.8485 17.6647 17.8724 17.8845C17.8947 18.08 17.9521 18.2335 18.0637 18.3531L17.8086 18.5859C17.7241 18.6618 17.6428 18.7459 17.5487 18.8121C17.5933 18.7378 17.6252 18.6554 17.6444 18.5713C17.6651 18.4889 17.6747 18.4049 17.6731 18.3224C17.6699 18.101 17.5822 17.9265 17.4482 17.802C17.3318 17.9895 17.276 18.219 17.2648 18.4307C17.2553 18.6214 17.3031 18.7911 17.3988 18.9236L17.1245 19.1305C17.0352 19.2 16.9332 19.2517 16.8375 19.3131C16.9411 19.1709 17.0097 19.0158 17.0225 18.8461C17.0448 18.6198 16.9762 18.4323 16.855 18.2917C16.7896 18.3822 16.7354 18.4824 16.6924 18.5891C16.6477 18.6877 16.6126 18.7911 16.5967 18.8994C16.568 19.0917 16.5967 19.2695 16.6748 19.4133C16.4851 19.5394 16.2778 19.6299 16.0753 19.7301C16.1933 19.5943 16.2794 19.444 16.3176 19.2905C16.3655 19.0659 16.3176 18.8671 16.214 18.7103C16.1757 18.7539 16.1406 18.7976 16.1088 18.8461C16.0753 18.8913 16.0418 18.9333 16.0131 18.9818C15.9557 19.0772 15.911 19.179 15.8807 19.2873C15.8313 19.4796 15.8377 19.6622 15.8999 19.8158C15.6942 19.9063 15.4805 19.9741 15.2716 20.055C15.4055 19.9305 15.5076 19.7883 15.5634 19.6364C15.6415 19.4263 15.616 19.2226 15.5299 19.0529C15.3545 19.1935 15.211 19.3729 15.1281 19.5879C15.0563 19.7802 15.0388 19.9548 15.0818 20.1164C14.8666 20.1713 14.6529 20.2311 14.436 20.2796C14.5843 20.1746 14.7007 20.0372 14.7741 19.8901C14.8745 19.6832 14.8761 19.4796 14.8107 19.2986C14.6162 19.4182 14.4536 19.5911 14.3451 19.7948C14.2479 19.9645 14.2096 20.1422 14.2335 20.3103L13.9273 20.3572C13.8253 20.3733 13.7216 20.3895 13.618 20.3911L13.5159 20.396V20.2408C13.5159 20.1907 13.4761 20.1503 13.4266 20.1503H13.4155C13.366 20.1503 13.3262 20.1907 13.3262 20.2408V20.7224C13.3262 20.7725 13.366 20.8129 13.4155 20.8129H13.4266C13.4761 20.8129 13.5159 20.7725 13.5159 20.7224V20.5414L13.6323 20.535C13.7376 20.535 13.8412 20.5172 13.9465 20.4994L14.259 20.4509C14.2925 20.6174 14.3898 20.7741 14.5668 20.9018C14.7661 21.0343 15.0356 21.0893 15.329 21.0828C15.2923 20.8921 15.1632 20.724 14.959 20.5964C14.8123 20.5042 14.6433 20.4509 14.4647 20.417C14.6864 20.3669 14.9032 20.3038 15.1233 20.2473C15.1743 20.4057 15.2923 20.556 15.4757 20.6449C15.6862 20.7483 15.9621 20.7822 16.2475 20.7402C16.1885 20.5592 16.0434 20.4105 15.8265 20.3071C15.6718 20.2327 15.4964 20.1923 15.3162 20.1842C15.5283 20.1018 15.7468 20.0323 15.9557 19.937C16.0242 20.0889 16.1518 20.2117 16.3464 20.2845C16.458 20.3249 16.5808 20.3459 16.7115 20.3475C16.7769 20.3475 16.8455 20.3475 16.9124 20.3362C16.9778 20.3232 17.0464 20.3071 17.1134 20.2845C17.0336 20.1115 16.8758 19.9855 16.6557 19.9176C16.4931 19.861 16.3145 19.84 16.1343 19.8513C16.3416 19.7495 16.5521 19.6558 16.7434 19.5265C16.8295 19.6671 16.9698 19.7754 17.1708 19.8255C17.2856 19.8529 17.4099 19.861 17.5391 19.8481C17.6635 19.8287 17.7927 19.7883 17.9202 19.7317C17.823 19.5733 17.6523 19.4651 17.4291 19.4247C17.268 19.3988 17.0878 19.3972 16.9092 19.4247C17.0081 19.36 17.1118 19.3083 17.2027 19.2356L17.4801 19.0238C17.5806 19.1515 17.7321 19.2436 17.9378 19.2711C18.1706 19.3051 18.4161 19.2242 18.6601 19.0901C18.5469 18.9463 18.3651 18.859 18.1387 18.8412C18.0574 18.8348 17.9713 18.8412 17.8883 18.8525C17.8054 18.8655 17.7209 18.8865 17.6316 18.9091C17.7289 18.8428 17.8086 18.7556 17.8947 18.678L18.153 18.4404C18.2647 18.5519 18.4337 18.6327 18.6298 18.6263C18.8531 18.6214 19.0954 18.5245 19.3219 18.3661C19.1943 18.2384 19.0046 18.1721 18.7781 18.1818C18.6107 18.1883 18.4433 18.2335 18.2854 18.3095C18.4401 18.1333 18.6027 17.962 18.7526 17.7778C18.877 17.878 19.0396 17.9265 19.2358 17.9006C19.3474 17.8861 19.4606 17.8489 19.5706 17.7939C19.6839 17.7374 19.7939 17.663 19.8848 17.5645C19.7429 17.4513 19.5611 17.4174 19.3394 17.4513C19.172 17.4772 19.0093 17.5402 18.8594 17.6307C18.9966 17.4368 19.1497 17.2541 19.2629 17.044C19.3984 17.1265 19.5643 17.1572 19.7572 17.1087C19.8656 17.0812 19.9741 17.0344 20.0777 16.9665C20.1782 16.8986 20.2675 16.8065 20.352 16.7014C20.2021 16.6093 20.0107 16.5931 19.8034 16.6562C19.6552 16.7063 19.4909 16.7822 19.3538 16.8905C19.4144 16.7871 19.4797 16.6869 19.534 16.5802L19.6886 16.2554C19.829 16.32 19.998 16.3313 20.1862 16.2634C20.2388 16.244 20.2898 16.2198 20.3408 16.1907C20.3871 16.16 20.4333 16.1245 20.4764 16.0824C20.5641 16.0016 20.6454 15.903 20.7172 15.7931C20.5609 15.7204 20.3695 15.7269 20.1718 15.8125C20.0203 15.8772 19.8959 15.9838 19.762 16.1002C19.8178 15.9935 19.8577 15.8788 19.8975 15.764L20.0203 15.423C20.1654 15.4683 20.3376 15.4618 20.5099 15.3713C20.6964 15.2695 20.8575 15.0804 20.9771 14.8461C20.8144 14.7943 20.6263 14.8218 20.4413 14.9285C20.301 15.0109 20.1766 15.1273 20.0745 15.2663L20.2531 14.5568C20.403 14.5859 20.5625 14.5568 20.7172 14.4453L20.7156 14.4517Z" fill="#E1E2E4"/>
<path d="M12.5795 20.1552H12.5684C12.5189 20.1552 12.4791 20.1956 12.4791 20.2457V20.4008L12.377 20.396C12.2734 20.396 12.1697 20.3782 12.0677 20.362L11.7615 20.3152C11.7854 20.1471 11.7471 19.9693 11.6499 19.7996C11.5414 19.596 11.3788 19.4214 11.1842 19.3034C11.1189 19.4845 11.1205 19.6881 11.2209 19.895C11.2943 20.042 11.4123 20.1794 11.559 20.2845C11.3421 20.236 11.1284 20.1762 10.9132 20.1212C10.9562 19.958 10.9387 19.7834 10.8669 19.5927C10.7856 19.3778 10.6405 19.1984 10.4651 19.0578C10.379 19.2291 10.3535 19.4327 10.4316 19.6412C10.4874 19.7931 10.5895 19.9354 10.7234 20.0598C10.5145 19.979 10.2992 19.9111 10.0951 19.8206C10.1573 19.6655 10.1637 19.4828 10.1143 19.2921C10.0856 19.1838 10.0393 19.0804 9.98192 18.9867C9.95481 18.9398 9.91973 18.8962 9.88624 18.8509C9.85435 18.8041 9.81927 18.7588 9.781 18.7152C9.67735 18.8719 9.62792 19.0707 9.67735 19.2954C9.71562 19.4505 9.80013 19.5992 9.91973 19.735C9.71722 19.6348 9.50992 19.5443 9.32016 19.4182C9.39989 19.2744 9.427 19.0966 9.39829 18.9043C9.38235 18.796 9.34886 18.6925 9.30262 18.5939C9.25956 18.4873 9.20535 18.3871 9.13997 18.2966C9.02037 18.4372 8.95021 18.6247 8.97254 18.8509C8.9837 19.0206 9.05386 19.1742 9.15751 19.318C9.06183 19.2566 8.95978 19.2049 8.87048 19.1337L8.59621 18.9285C8.69189 18.796 8.73813 18.6247 8.73016 18.4356C8.71899 18.2238 8.66318 17.9944 8.54678 17.8069C8.41283 17.9313 8.32513 18.1059 8.32194 18.3273C8.32194 18.4097 8.33151 18.4921 8.35064 18.5762C8.36978 18.6602 8.40007 18.7426 8.44632 18.817C8.35224 18.7523 8.2725 18.6667 8.1864 18.5907L7.93126 18.358C8.04288 18.2384 8.10029 18.0849 8.12261 17.8893C8.14653 17.6695 8.10348 17.4497 8.01099 17.2525C7.86429 17.3592 7.76064 17.5192 7.73353 17.7342C7.71439 17.8925 7.73991 18.0638 7.8005 18.2319C7.64742 18.0574 7.48477 17.8909 7.33807 17.7115C7.45926 17.6081 7.54537 17.4546 7.58523 17.2671C7.60756 17.162 7.61393 17.0554 7.60596 16.9487C7.59639 16.842 7.57247 16.737 7.54856 16.6287C7.39388 16.7127 7.26472 16.8663 7.21369 17.0731C7.17861 17.2267 7.18658 17.3948 7.23123 17.5661C7.09409 17.377 6.9442 17.196 6.83098 16.9891C6.96174 16.9034 7.0638 16.7628 7.1228 16.5851C7.15469 16.4849 7.17063 16.3814 7.17382 16.278C7.1802 16.1729 7.1802 16.0614 7.16266 15.9548C7.00001 16.021 6.86288 16.1503 6.78155 16.3523C6.71777 16.5059 6.71617 16.6675 6.74169 16.8404C6.68109 16.7386 6.61571 16.64 6.56309 16.5366L6.41001 16.215C6.54714 16.1471 6.66355 16.021 6.74009 15.8562C6.76082 15.8109 6.77836 15.7608 6.79112 15.7123C6.80706 15.6622 6.82142 15.6105 6.83258 15.5572C6.85331 15.4537 6.85969 15.3455 6.8549 15.2388C6.68747 15.2857 6.53758 15.3956 6.44031 15.583C6.36855 15.7204 6.32231 15.8933 6.33825 16.063C6.28244 15.958 6.24258 15.8449 6.20271 15.7317L6.07993 15.3956C6.22663 15.3455 6.34782 15.2388 6.44668 15.0836C6.56309 14.9075 6.62369 14.7006 6.63166 14.4921C6.46104 14.518 6.30477 14.6069 6.18836 14.7782C6.10066 14.9075 6.04644 15.0675 6.02571 15.2436L5.84711 14.5455C5.99541 14.5131 6.13733 14.4226 6.25533 14.2788C6.38768 14.1204 6.46423 13.9249 6.49612 13.7212C6.3255 13.7261 6.15966 13.7956 6.03049 13.9491C5.93003 14.0671 5.86306 14.2174 5.82479 14.3871L5.76898 14.0283C5.74984 13.9087 5.72911 13.7891 5.72752 13.6679C5.87901 13.655 6.0273 13.5822 6.15647 13.4562C6.22822 13.3867 6.28882 13.3059 6.33666 13.2186C6.3829 13.1313 6.41798 13.036 6.45466 12.9374C6.29201 12.9228 6.11182 12.9713 5.96511 13.1071C5.85509 13.2089 5.77376 13.3527 5.71955 13.516C5.70838 13.2719 5.68765 13.0279 5.70679 12.7838C5.85668 12.7887 6.00817 12.7354 6.14849 12.6271C6.22822 12.5673 6.28563 12.4946 6.35101 12.4154C6.41479 12.3362 6.46741 12.2489 6.50728 12.1552C6.34622 12.1212 6.17241 12.1487 6.00817 12.2634C5.94438 12.3087 5.88698 12.362 5.83595 12.4251C5.78971 12.4881 5.74825 12.5608 5.71476 12.6368C5.71476 12.3895 5.75941 12.1471 5.78811 11.903C5.93641 11.9257 6.08471 11.8901 6.23779 11.8012C6.41001 11.7026 6.54874 11.5539 6.64282 11.3794C6.48814 11.3277 6.31752 11.3342 6.1469 11.4279C6.01455 11.5006 5.89974 11.6186 5.80725 11.7624L5.88538 11.3988C5.91249 11.2792 5.93322 11.1564 5.97309 11.04C6.11341 11.0804 6.27287 11.0659 6.43233 10.9948C6.60614 10.9172 6.74966 10.783 6.87723 10.6295C6.73371 10.56 6.5615 10.5471 6.37812 10.6166C6.2346 10.6699 6.1166 10.775 6.01295 10.9075C6.04963 10.7879 6.08312 10.6683 6.12298 10.5503L6.26012 10.2028C6.39406 10.2594 6.54874 10.2643 6.70979 10.2125C6.88998 10.1576 7.0622 10.0525 7.19136 9.9087C7.05742 9.82304 6.89317 9.7891 6.70979 9.83759C6.56787 9.87799 6.41958 9.95718 6.30795 10.0816C6.35101 9.96203 6.41639 9.85375 6.46901 9.74062C6.52641 9.6291 6.57585 9.51274 6.63963 9.40607C6.76401 9.47718 6.92028 9.50304 7.08612 9.47233C7.17861 9.45779 7.2679 9.42708 7.35082 9.38506C7.39228 9.36405 7.43215 9.33981 7.47042 9.31233C7.51188 9.28647 7.55174 9.26062 7.59001 9.22991C7.47042 9.12971 7.30777 9.07476 7.1212 9.10062C6.97609 9.12324 6.83417 9.19435 6.70342 9.29617L6.89796 8.97294C6.96493 8.86627 7.04307 8.76607 7.11642 8.66264C7.22963 8.74829 7.37634 8.79031 7.54218 8.78062C7.71758 8.76445 7.91212 8.70951 8.0684 8.60445C7.96156 8.49294 7.81166 8.42344 7.6251 8.42668C7.47839 8.42991 7.31893 8.47354 7.18499 8.56728C7.25674 8.46062 7.33966 8.36526 7.42258 8.26829L7.66974 7.979C7.7702 8.07759 7.91212 8.13738 8.07956 8.15031C8.26294 8.16486 8.43994 8.11476 8.61215 8.03557C8.52286 7.91597 8.37615 7.82223 8.19915 7.80769C8.05564 7.79476 7.89937 7.8287 7.75107 7.89819C7.93126 7.71718 8.10826 7.53132 8.30918 7.37294C8.39529 7.48122 8.52764 7.55718 8.6871 7.58466C8.85772 7.61213 9.04908 7.5992 9.22448 7.53779C9.14794 7.40688 9.02197 7.30829 8.84497 7.26627C8.77321 7.25011 8.69667 7.24365 8.61853 7.24849C8.54199 7.25658 8.46545 7.27597 8.39051 7.30506L8.53721 7.179C8.58824 7.14021 8.64245 7.10304 8.69348 7.06587L9.00921 6.83961C9.08097 6.95597 9.20056 7.04324 9.35843 7.09658C9.52905 7.15153 9.71243 7.15314 9.88784 7.10951C9.82724 6.97213 9.71562 6.86062 9.55138 6.80405C9.41424 6.75718 9.25478 6.75395 9.09373 6.78627C9.31856 6.65536 9.53543 6.50829 9.77303 6.40324C9.83043 6.52607 9.93727 6.6295 10.084 6.69415C10.1637 6.72971 10.2466 6.75072 10.3327 6.76203C10.4204 6.77658 10.5113 6.78142 10.6006 6.77334C10.5576 6.63274 10.4635 6.50829 10.3024 6.42748C10.1685 6.35637 10.017 6.34506 9.85595 6.36122L10.0712 6.25617C10.1446 6.22223 10.2211 6.19637 10.2945 6.16567C10.4491 6.17536 10.6086 6.14304 10.7728 6.09294C10.9642 6.03637 11.1268 5.9394 11.2544 5.81819C11.0902 5.78264 10.894 5.79072 10.6947 5.8489C10.5225 5.90062 10.3822 6.00567 10.2721 6.11072C10.1972 6.13981 10.1206 6.16567 10.0473 6.19961L9.82884 6.30466C9.94524 6.18829 10.0361 6.0493 10.0919 5.91193C10.1589 5.74385 10.1573 5.58385 10.0919 5.44971C10.0042 5.51274 9.92451 5.58223 9.86073 5.65819C9.79854 5.739 9.7523 5.82466 9.722 5.91193C9.66619 6.07678 9.68054 6.22385 9.74273 6.34506C9.50194 6.45011 9.28348 6.59718 9.05705 6.72809C9.1607 6.60203 9.24043 6.45981 9.2771 6.30789C9.32175 6.12526 9.30102 5.96203 9.2197 5.83759C9.05864 5.99112 8.94383 6.17213 8.90237 6.35314C8.86251 6.51961 8.8944 6.66668 8.97254 6.78304L8.65361 7.01092C8.60099 7.04809 8.54678 7.08526 8.49575 7.12405L8.34586 7.25011C8.38891 7.179 8.4224 7.10142 8.44951 7.02546C8.4798 6.95274 8.50053 6.87678 8.51329 6.80082C8.5388 6.61496 8.49894 6.45334 8.40326 6.33698C8.25496 6.50829 8.1545 6.69415 8.14015 6.88971C8.1258 7.06748 8.17364 7.21132 8.26453 7.31799C8.06042 7.47637 7.88183 7.66385 7.69845 7.84486C7.76702 7.69456 7.80688 7.53617 7.80848 7.37779C7.80848 7.18223 7.75426 7.03193 7.64264 6.92365C7.51028 7.1095 7.4465 7.32607 7.4465 7.51678C7.4465 7.69294 7.51347 7.83031 7.61712 7.92728L7.36518 8.21819C7.28226 8.31678 7.19615 8.41213 7.12439 8.5188C7.16745 8.35395 7.19615 8.19718 7.1802 8.04203C7.16107 7.84809 7.08293 7.69617 6.96015 7.60405C6.8565 7.81415 6.79431 8.02102 6.82779 8.22142C6.8549 8.40082 6.93782 8.53334 7.05263 8.61738C6.97928 8.72082 6.89955 8.82264 6.83098 8.9293L6.63166 9.25738C6.66355 9.09254 6.66355 8.92445 6.62687 8.7693C6.58542 8.57698 6.49293 8.43637 6.35739 8.35557C6.33506 8.41052 6.31593 8.46385 6.30158 8.5188C6.29041 8.57536 6.28085 8.63031 6.27606 8.68526C6.26649 8.79516 6.27606 8.90021 6.29998 8.99557C6.34463 9.17173 6.4419 9.29294 6.56628 9.36405C6.5009 9.47233 6.44828 9.59031 6.39087 9.70183C6.33825 9.81819 6.27287 9.92647 6.22822 10.0461C6.23141 9.87314 6.22503 9.71314 6.17082 9.56284C6.10544 9.37375 5.99063 9.24122 5.84552 9.17658C5.7913 9.41253 5.78652 9.64041 5.85987 9.8295C5.93003 10.0024 6.04484 10.1139 6.1772 10.1689L6.03687 10.5212C5.99541 10.6408 5.96193 10.762 5.92366 10.8816C5.91409 10.7119 5.86784 10.5455 5.80246 10.4049C5.71795 10.2238 5.58879 10.1043 5.43411 10.059C5.39106 10.2966 5.43411 10.5325 5.52979 10.7135C5.61749 10.8768 5.74187 10.9737 5.88379 11.0142C5.84233 11.1337 5.82001 11.2566 5.7929 11.3794L5.71317 11.7463C5.68606 11.5798 5.63184 11.4214 5.54254 11.2873C5.42933 11.1127 5.28262 11.0077 5.12316 10.9818C5.12635 11.2307 5.18376 11.4618 5.29698 11.6299C5.40063 11.7834 5.54733 11.8675 5.69084 11.8901C5.66214 12.139 5.6143 12.383 5.61271 12.6335C5.5856 12.5511 5.55211 12.4735 5.51225 12.3992C5.47557 12.3265 5.43252 12.2586 5.38308 12.1956C5.25392 12.0372 5.09606 11.9467 4.93181 11.9402C4.94297 12.0647 4.97008 12.1843 5.00995 12.2909C5.04822 12.3976 5.1136 12.4929 5.18216 12.5705C5.30973 12.7127 5.45803 12.779 5.60792 12.7838C5.58719 13.0311 5.60792 13.2784 5.61749 13.5257C5.54733 13.3689 5.45006 13.2267 5.33046 13.1152C5.17579 12.9713 5.01473 12.9018 4.8457 12.9131C4.86643 13.036 4.91427 13.1523 4.97327 13.2542C5.03068 13.356 5.09925 13.4465 5.17898 13.516C5.32089 13.642 5.47557 13.6905 5.62546 13.6792C5.62546 13.802 5.64619 13.9249 5.66533 14.0461L5.71955 14.4097C5.63344 14.261 5.52182 14.1301 5.39106 14.0331C5.21725 13.9055 5.03706 13.857 4.87281 13.8877C4.9653 14.1317 5.10722 14.3354 5.27944 14.4566C5.43411 14.5665 5.59517 14.5972 5.74346 14.5681L5.92206 15.2776C5.8216 15.1402 5.69563 15.0222 5.5553 14.9398C5.36873 14.8331 5.18216 14.8041 5.01951 14.8574C5.13911 15.0917 5.30176 15.2808 5.48673 15.3826C5.65895 15.4731 5.83117 15.4812 5.97628 15.4344L6.09906 15.7754C6.13893 15.8901 6.17879 16.0049 6.2346 16.1115C6.09906 15.9935 5.97468 15.8869 5.82479 15.8238C5.62706 15.7382 5.43571 15.7317 5.27944 15.8045C5.35119 15.9144 5.43252 16.0146 5.52022 16.0937C5.56487 16.1358 5.60952 16.1713 5.65576 16.202C5.70679 16.2311 5.75782 16.2554 5.81044 16.2748C5.9986 16.3426 6.16603 16.3329 6.30795 16.2667L6.46263 16.5915C6.51685 16.6982 6.58223 16.7984 6.64282 16.9018C6.50568 16.7935 6.34144 16.7176 6.19314 16.6675C5.98584 16.6028 5.79449 16.6206 5.6446 16.7127C5.72911 16.8162 5.81682 16.9083 5.91887 16.9778C6.02252 17.0457 6.13095 17.0942 6.23939 17.12C6.43074 17.1669 6.59817 17.1362 6.73371 17.0554C6.84693 17.2655 6.99842 17.4497 7.13715 17.642C6.98725 17.5515 6.82461 17.4869 6.65717 17.4626C6.43552 17.4287 6.25374 17.4626 6.11182 17.5758C6.20271 17.6744 6.31274 17.7487 6.42595 17.8053C6.53598 17.8602 6.6492 17.8974 6.76082 17.9119C6.95696 17.9378 7.11961 17.8877 7.24399 17.7891C7.39388 17.9733 7.55653 18.1447 7.7112 18.3208C7.55334 18.2449 7.38591 18.1996 7.21847 18.1931C6.99204 18.1834 6.80228 18.2497 6.67471 18.3774C6.90115 18.5358 7.14353 18.6327 7.36677 18.6376C7.56291 18.6441 7.73193 18.5632 7.84356 18.4517L8.10188 18.6893C8.18799 18.7685 8.26932 18.8542 8.36499 18.9204C8.27569 18.8978 8.19277 18.8768 8.10826 18.8638C8.02534 18.8509 7.93923 18.8461 7.85791 18.8525C7.63147 18.8687 7.44969 18.956 7.33647 19.1014C7.58204 19.2356 7.82602 19.3164 8.05883 19.2824C8.26453 19.255 8.41602 19.1628 8.51648 19.0352L8.79394 19.2469C8.88483 19.3196 8.98848 19.3713 9.08735 19.436C8.90875 19.4085 8.72856 19.4101 8.56751 19.436C8.34426 19.4764 8.17364 19.5847 8.07637 19.743C8.20394 19.7996 8.3331 19.84 8.45748 19.8594C8.58664 19.8723 8.71102 19.8659 8.82583 19.8368C9.02675 19.7867 9.16708 19.68 9.25319 19.5378C9.44454 19.6671 9.65503 19.7608 9.86232 19.8626C9.68213 19.8529 9.50354 19.8723 9.34089 19.9289C9.12083 19.9968 8.96297 20.1228 8.88324 20.2958C8.95021 20.3184 9.01878 20.3346 9.08416 20.3475C9.15113 20.3572 9.2197 20.3588 9.28508 20.3588C9.41583 20.3588 9.53862 20.3362 9.65024 20.2958C9.84478 20.223 9.97235 20.1002 10.0409 19.9483C10.2498 20.0436 10.4683 20.1131 10.6804 20.1956C10.5002 20.2053 10.3264 20.2441 10.1701 20.3184C9.95322 20.4218 9.80811 20.5705 9.74911 20.7515C10.0345 20.7952 10.3104 20.7612 10.5209 20.6562C10.7043 20.5673 10.8207 20.417 10.8733 20.2586C11.0934 20.3152 11.3102 20.3782 11.5319 20.4283C11.3533 20.4622 11.1842 20.5156 11.0375 20.6077C10.8334 20.7337 10.7043 20.9034 10.6676 21.0942C10.961 21.1006 11.2305 21.0457 11.4298 20.9131C11.6068 20.7855 11.7041 20.6271 11.7376 20.4622L12.0501 20.5107C12.1538 20.5285 12.259 20.5463 12.3643 20.5463L12.4807 20.5527V20.7337C12.4807 20.7838 12.5205 20.8243 12.57 20.8243H12.5811C12.6306 20.8243 12.6704 20.7838 12.6704 20.7337V20.2521C12.6704 20.202 12.6306 20.1616 12.5811 20.1616L12.5795 20.1552Z" fill="#E1E2E4"/>
<path d="M12.8612 20.1552H12.85C12.8007 20.1552 12.7607 20.1957 12.7607 20.2457V20.7273C12.7607 20.7773 12.8007 20.8178 12.85 20.8178H12.8612C12.9105 20.8178 12.9505 20.7773 12.9505 20.7273V20.2457C12.9505 20.1957 12.9105 20.1552 12.8612 20.1552Z" fill="#E1E2E4"/>
<path d="M13.1444 20.1552H13.1332C13.0839 20.1552 13.0439 20.1957 13.0439 20.2457V20.7273C13.0439 20.7773 13.0839 20.8178 13.1332 20.8178H13.1444C13.1937 20.8178 13.2337 20.7773 13.2337 20.7273V20.2457C13.2337 20.1957 13.1937 20.1552 13.1444 20.1552Z" fill="#E1E2E4"/>
<path opacity="0.1" d="M13.4788 11.7608C13.6877 11.4602 13.7929 11.1709 13.7929 10.8897C13.7929 10.6085 13.702 10.3758 13.5202 10.1867C13.3384 9.99921 13.1056 9.90386 12.8202 9.90386C12.2988 9.90386 11.8044 10.2804 11.3388 11.0336L9.85742 10.1447C10.2449 9.53537 10.6691 9.07477 11.1315 8.76285C11.5939 8.45093 12.1824 8.29416 12.8983 8.29416C13.6143 8.29416 14.241 8.52527 14.7832 8.98426C15.3237 9.44487 15.5948 10.0719 15.5948 10.8639C15.5948 11.297 15.4864 11.7107 15.2695 12.1067C15.0526 12.5026 14.6508 13.0101 14.0656 13.6259L12.5714 15.2H15.8436V16.8824H9.99934V15.4893L12.4295 12.9665C12.9191 12.4622 13.2699 12.0598 13.4788 11.7592V11.7608Z" fill="black"/>
<path d="M10.0339 16.8501V15.297L12.4959 12.7402C12.9791 12.2424 13.3283 11.84 13.534 11.5459C13.7286 11.2663 13.8274 10.9947 13.8274 10.7394C13.8274 10.484 13.7493 10.2836 13.5866 10.1155C13.4256 9.94908 13.2215 9.86666 12.9663 9.86666C12.488 9.86666 12.0207 10.2287 11.579 10.943L11.5216 11.0368L9.8457 10.0315L9.90789 9.93292C10.3018 9.31393 10.7403 8.83878 11.2139 8.51878C11.6923 8.19555 12.3078 8.0307 13.0429 8.0307C13.778 8.0307 14.4398 8.27151 14.9995 8.74828C15.5639 9.22989 15.851 9.8909 15.851 10.7151C15.851 11.1644 15.7362 11.6024 15.5113 12.0129C15.2897 12.417 14.8799 12.9358 14.2915 13.5564L12.9791 14.9382H16.0997V16.8469H10.0323L10.0339 16.8501Z" fill="url(#paint7_linear_105_517)"/>
<path d="M13.6243 11.6121C13.8332 11.3115 13.9384 11.0222 13.9384 10.741C13.9384 10.4598 13.8475 10.2271 13.6657 10.038C13.4839 9.8505 13.2511 9.75514 12.9657 9.75514C12.4443 9.75514 11.9499 10.1317 11.4843 10.8848L10.0029 9.99595C10.3904 9.38666 10.8146 8.92605 11.277 8.61413C11.7395 8.30221 12.3279 8.14545 13.0438 8.14545C13.7598 8.14545 14.3865 8.37656 14.9287 8.83555C15.4692 9.29615 15.7403 9.92322 15.7403 10.7151C15.7403 11.1483 15.6319 11.562 15.415 11.958C15.1981 12.3539 14.7963 12.8614 14.2111 13.4772L12.7169 15.0513H15.9891V16.7337H10.1448V15.3406L12.575 12.8178C13.0646 12.3135 13.4154 11.9111 13.6243 11.6105V11.6121Z" fill="url(#paint8_linear_105_517)"/>
</g>
<defs>
<linearGradient id="paint0_linear_105_517" x1="20.2271" y1="38.6135" x2="12.6815" y2="16.3758" gradientUnits="userSpaceOnUse">
<stop offset="0.11" stop-color="#B20606"/>
<stop offset="0.43" stop-color="#D33333"/>
<stop offset="0.57" stop-color="#5B0000"/>
</linearGradient>
<linearGradient id="paint1_linear_105_517" x1="5.8146" y1="38.4749" x2="13.3602" y2="16.2372" gradientUnits="userSpaceOnUse">
<stop offset="0.11" stop-color="#B20606"/>
<stop offset="0.2" stop-color="#B50B0B"/>
<stop offset="0.32" stop-color="#C01A1A"/>
<stop offset="0.44" stop-color="#D33333"/>
<stop offset="0.48" stop-color="#C52A2A"/>
<stop offset="0.54" stop-color="#A21515"/>
<stop offset="0.59" stop-color="#7F0000"/>
</linearGradient>
<linearGradient id="paint2_linear_105_517" x1="3.18395" y1="23.1062" x2="26.5855" y2="0.0168188" gradientUnits="userSpaceOnUse">
<stop stop-color="#787677"/>
<stop offset="0.07" stop-color="#7E7C7D"/>
<stop offset="0.16" stop-color="#8F8E8F"/>
<stop offset="0.27" stop-color="#ACABAD"/>
<stop offset="0.39" stop-color="#D4D4D6"/>
<stop offset="0.41" stop-color="#DADADC"/>
<stop offset="0.66" stop-color="#F4F4F4"/>
<stop offset="1" stop-color="#E2E3E4"/>
</linearGradient>
<linearGradient id="paint3_linear_105_517" x1="4.55389" y1="21.7131" x2="23.4176" y2="3.10102" gradientUnits="userSpaceOnUse">
<stop stop-color="#E2E3E4"/>
<stop offset="0.34" stop-color="#F4F4F4"/>
<stop offset="0.59" stop-color="#DADADC"/>
<stop offset="0.61" stop-color="#D4D4D6"/>
<stop offset="0.73" stop-color="#ACABAD"/>
<stop offset="0.84" stop-color="#8F8E8F"/>
<stop offset="0.93" stop-color="#7E7C7D"/>
<stop offset="1" stop-color="#787677"/>
</linearGradient>
<linearGradient id="paint4_linear_105_517" x1="4.55389" y1="21.7131" x2="23.4176" y2="3.10102" gradientUnits="userSpaceOnUse">
<stop stop-color="#E2E3E4"/>
<stop offset="0.34" stop-color="#F4F4F4"/>
<stop offset="0.59" stop-color="#DADADC"/>
<stop offset="0.61" stop-color="#D4D4D6"/>
<stop offset="0.73" stop-color="#ACABAD"/>
<stop offset="0.84" stop-color="#8F8E8F"/>
<stop offset="0.93" stop-color="#7E7C7D"/>
<stop offset="1" stop-color="#787677"/>
</linearGradient>
<linearGradient id="paint5_linear_105_517" x1="6.4116" y1="19.8335" x2="19.7647" y2="6.65851" gradientUnits="userSpaceOnUse">
<stop stop-color="#787677"/>
<stop offset="0.07" stop-color="#7E7C7D"/>
<stop offset="0.16" stop-color="#8F8E8F"/>
<stop offset="0.27" stop-color="#ACABAD"/>
<stop offset="0.39" stop-color="#D4D4D6"/>
<stop offset="0.41" stop-color="#DADADC"/>
<stop offset="0.66" stop-color="#F4F4F4"/>
<stop offset="1" stop-color="#E2E3E4"/>
</linearGradient>
<linearGradient id="paint6_linear_105_517" x1="6.79778" y1="19.4392" x2="19.3639" y2="7.04071" gradientUnits="userSpaceOnUse">
<stop stop-color="#A0A0A0"/>
<stop offset="0.27" stop-color="#A6A6A6"/>
<stop offset="0.64" stop-color="#B8B8B8"/>
<stop offset="0.97" stop-color="#CECECE"/>
</linearGradient>
<linearGradient id="paint7_linear_105_517" x1="9.76757" y1="16.5786" x2="16.3399" y2="10.0939" gradientUnits="userSpaceOnUse">
<stop stop-color="#A0A0A0"/>
<stop offset="0.27" stop-color="#A6A6A6"/>
<stop offset="0.64" stop-color="#B8B8B8"/>
<stop offset="0.97" stop-color="#CECECE"/>
</linearGradient>
<linearGradient id="paint8_linear_105_517" x1="9.86101" y1="16.4493" x2="16.241" y2="10.1544" gradientUnits="userSpaceOnUse">
<stop offset="0.06" stop-color="#C1C1C1"/>
<stop offset="0.36" stop-color="#C7C7C7"/>
<stop offset="0.78" stop-color="#D9D9D9"/>
<stop offset="0.93" stop-color="#E2E2E2"/>
</linearGradient>
<clipPath id="clip0_105_517">
<rect width="26" height="40" fill="white"/>
</clipPath>
</defs>
</svg>
